<svg width="1166" height="1758" viewBox="0 0 1166 1758" fill="none" xmlns="http://www.w3.org/2000/svg">
<path d="M76.2532 1C76.4198 41.6188 91.7531 129.615 151.753 156.648C226.753 190.44 280.253 190.952 356.253 189.928C417.053 189.109 735.42 186.159 880.253 186.5C918.753 186.591 985.8 200.227 1031.75 241.5C1085.75 290 1086.91 335.203 1089.25 375.5C1091.25 409.906 1089.25 586.186 1089.25 642C1089.25 769 1009.25 851 860.753 852L290.753 858.93C162.753 858.93 79.7532 910.916 73.2532 1042.5V1353C67.7532 1462 152.753 1537.67 242.253 1537.67C348.753 1537.67 413.753 1539.37 447.753 1537.67C518.753 1537.67 582.753 1587 586.753 1669.5C586.753 1674.01 586.753 1696.23 586.753 1757.5" stroke="url(#paint0_linear)" stroke-width="150"/>
<path d="M76.2532 1C76.4198 41.6188 91.7531 129.615 151.753 156.648C226.753 190.44 280.253 190.952 356.253 189.928C417.053 189.109 735.42 186.159 880.253 186.5C918.753 186.591 985.8 200.227 1031.75 241.5C1085.75 290 1086.91 335.203 1089.25 375.5C1091.25 409.906 1089.25 586.186 1089.25 642C1089.25 769 1009.25 851 860.753 852L290.753 858.93C162.753 858.93 79.7532 910.916 73.2532 1042.5V1353C67.7532 1462 152.753 1537.67 242.253 1537.67C348.753 1537.67 413.753 1539.37 447.753 1537.67C518.753 1537.67 582.753 1587 586.753 1669.5C586.753 1674.01 586.753 1677.23 586.753 1738.5" stroke="url(#paint1_linear)" stroke-width="2" stroke-dasharray="10 15"/>
<defs>
<linearGradient id="paint0_linear" x1="583.805" y1="1" x2="583.805" y2="1707.5" gradientUnits="userSpaceOnUse">
<stop stop-color="white"/>
<stop offset="0.541436" stop-color="#E6E8EC" stop-opacity="0.1"/>
<stop offset="1" stop-color="white"/>
</linearGradient>
<linearGradient id="paint1_linear" x1="583.805" y1="1" x2="583.805" y2="1707.5" gradientUnits="userSpaceOnUse">
<stop stop-color="white"/>
<stop offset="0.209945" stop-color="#E6E8EC"/>
<stop offset="0.834254" stop-color="#E6E8EC"/>
<stop offset="1" stop-color="white"/>
</linearGradient>
</defs>
</svg>
