<svg width="376" height="466" viewBox="0 0 376 466" fill="none" xmlns="http://www.w3.org/2000/svg">
<path d="M205.051 161.083C211.696 153.867 216.632 145.382 219.526 136.2C222.42 127.019 223.204 117.355 221.826 107.861C220.448 98.367 216.94 89.2643 211.539 81.1673C206.137 73.0704 198.968 66.1677 190.515 60.9254C194.886 54.4984 197.203 47.0077 197.186 39.3581C197.186 17.7293 179.129 0.193359 156.809 0.193359C147.997 0.250531 139.445 3.03379 132.45 8.12098C125.455 13.2082 120.399 20.3217 118.048 28.3827C112.796 19.835 105.282 12.7375 96.2516 7.79317C87.2208 2.84883 76.9859 0.229086 66.5603 0.193359C33.3549 0.193359 6.43196 26.2521 6.43196 58.5648C6.42675 65.4351 7.67254 72.2544 10.1143 78.722C8.88686 78.63 7.67555 78.538 6.43196 78.538C-20.2325 78.538 -41.8419 99.5076 -41.8419 125.382C-41.8419 126.915 -41.745 128.555 -41.5835 130.119C-52.4331 134.737 -61.6356 142.247 -68.0724 151.736C-74.5092 161.225 -77.903 172.284 -77.8413 183.57C-77.8413 215.76 -50.9992 241.819 -17.9068 241.819C-14.425 241.817 -10.95 241.524 -7.52207 240.945C-7.69972 242.876 -7.81277 244.838 -7.81277 246.816C-7.81277 282.869 22.3079 312.1 59.4379 312.1C73.1985 312.094 86.6115 307.999 97.7954 300.389C106.786 307.883 118.341 312.018 130.306 312.024C158.069 312.024 180.55 290.196 180.55 263.248C180.55 262.083 180.454 260.934 180.373 259.799H180.55C210.267 259.799 234.364 236.408 234.364 207.575C234.409 198.025 231.702 188.645 226.535 180.451C221.369 172.256 213.939 165.558 205.051 161.083V161.083Z" fill="url(#paint0_linear)"/>
<path d="M95.6473 91.7515H87.782V455.377H95.6473V91.7515Z" fill="#DCE7FF"/>
<path d="M151.558 132.792L87.0676 198.891L92.8386 203.963L157.329 137.864L151.558 132.792Z" fill="#DCE7FF"/>
<path d="M25.429 208.148L20.7395 214.141L87.6046 261.273L92.2941 255.28L25.429 208.148Z" fill="#DCE7FF"/>
<path d="M120.406 234.254C110.305 224.055 104.675 210.589 104.659 196.592C104.716 186.935 107.408 177.458 112.475 169.084C117.542 160.71 124.81 153.725 133.569 148.812C129.64 143.403 127.533 136.989 127.528 130.418C127.528 112.024 143.84 97.0016 163.98 97.0016C171.753 96.9296 179.345 99.2273 185.64 103.557C191.934 107.886 196.598 114.019 198.946 121.052C203.913 113.635 210.785 107.538 218.915 103.331C227.045 99.1241 236.167 96.9463 245.427 97.0016C275.419 97.0016 299.741 119.29 299.741 146.789C299.755 152.665 298.639 158.493 296.446 163.988C297.545 163.911 298.643 163.835 299.773 163.835C323.838 163.835 343.38 181.723 343.38 203.796C343.378 205.148 343.302 206.499 343.154 207.843C352.745 211.531 360.968 217.838 366.781 225.964C372.594 234.09 375.736 243.67 375.81 253.492C375.81 280.915 351.584 303.126 321.674 303.126C318.534 303.125 315.401 302.874 312.306 302.375C312.468 304.03 312.565 305.701 312.565 307.387C312.565 338.152 285.383 363.091 251.839 363.091C239.542 363.098 227.521 359.63 217.309 353.128C209.034 359.575 198.653 363.087 187.947 363.061C162.882 363.061 142.565 344.421 142.565 321.444C142.565 320.447 142.661 319.466 142.726 318.5H142.565C115.739 318.5 93.9838 298.573 93.9838 273.94C94.0474 265.644 96.5557 257.53 101.225 250.517C105.895 243.503 112.539 237.87 120.406 234.254V234.254Z" fill="url(#paint1_linear)"/>
<path d="M228.243 175.99H218.423V485.537H228.243V175.99Z" fill="#DCE7FF"/>
<path d="M169.598 209.068L162.586 215.592L220.823 271.977L227.835 265.452L169.598 209.068Z" fill="#DCE7FF"/>
<path d="M281.896 273.123L221.521 313.337L227.161 320.966L287.537 280.752L281.896 273.123Z" fill="#DCE7FF"/>
<path d="M324.516 153.296H318.621V173.806H324.516V153.296Z" fill="#70DDFF"/>
<path d="M324.516 147.701H269.507V153.296H324.516V147.701Z" fill="#70DDFF"/>
<path d="M320.139 208.295C331.173 208.295 340.117 199.806 340.117 189.334C340.117 178.861 331.173 170.372 320.139 170.372C309.106 170.372 300.161 178.861 300.161 189.334C300.161 199.806 309.106 208.295 320.139 208.295Z" fill="url(#paint2_linear)"/>
<path d="M320.139 203.742C330.308 203.742 338.551 195.919 338.551 186.268C338.551 176.617 330.308 168.793 320.139 168.793C309.971 168.793 301.728 176.617 301.728 186.268C301.728 195.919 309.971 203.742 320.139 203.742Z" fill="#FFEB3B"/>
<path d="M275.402 93.6216H269.507V371.469H275.402V93.6216Z" fill="#70DDFF"/>
<path d="M272.011 96.9325C280.11 96.9325 286.675 90.701 286.675 83.0141C286.675 75.3272 280.11 69.0957 272.011 69.0957C263.912 69.0957 257.346 75.3272 257.346 83.0141C257.346 90.701 263.912 96.9325 272.011 96.9325Z" fill="#4F79A4"/>
<path d="M348.096 168.211H293.087V173.806H348.096V168.211Z" fill="#70DDFF"/>
<path d="M271.672 451.668C261.351 451.668 252.921 454.014 252.921 444.219V373.017C252.934 368.299 254.913 363.778 258.426 360.441C261.939 357.104 266.701 355.221 271.672 355.205V355.205C276.642 355.221 281.404 357.104 284.917 360.441C288.43 363.778 290.41 368.299 290.422 373.017V444.219C290.422 454.014 281.992 451.668 271.672 451.668Z" fill="#70DDFF"/>
<defs>
<linearGradient id="paint0_linear" x1="-4.50001" y1="34" x2="99.5" y2="304" gradientUnits="userSpaceOnUse">
<stop stop-color="#0470DC"/>
<stop offset="1" stop-color="#70DDFF"/>
</linearGradient>
<linearGradient id="paint1_linear" x1="191" y1="173.029" x2="308" y2="444.029" gradientUnits="userSpaceOnUse">
<stop stop-color="#0470DC"/>
<stop offset="1" stop-color="#6BD7FD"/>
<stop offset="1" stop-color="#70DDFF"/>
</linearGradient>
<linearGradient id="paint2_linear" x1="10397.5" y1="5570.99" x2="10397.5" y2="4632.4" gradientUnits="userSpaceOnUse">
<stop stop-color="#808080" stop-opacity="0.25"/>
<stop offset="0.54" stop-color="#808080" stop-opacity="0.12"/>
<stop offset="1" stop-color="#808080" stop-opacity="0.1"/>
</linearGradient>
</defs>
</svg>
