<svg width="401" height="310" viewBox="0 0 401 310" fill="none" xmlns="http://www.w3.org/2000/svg">
<path d="M14.4928 303.734C16.5465 299.96 14.2189 295.337 11.5627 291.968C8.90651 288.598 5.66155 285.119 5.73001 280.811C5.8327 274.646 12.3705 271.01 17.594 267.743C21.4709 265.318 25.0466 262.442 28.2462 259.175C29.5889 257.92 30.6971 256.435 31.5186 254.791C32.6002 252.38 32.5728 249.641 32.5044 246.997C32.2762 238.203 31.8403 229.418 31.1968 220.642" stroke="#3F3D56" stroke-width="4" stroke-miterlimit="10"/>
<path d="M41.1302 220.155C41.0574 218.545 40.5802 216.98 39.7426 215.603C38.905 214.226 37.7341 213.083 36.3381 212.279L34.1884 216.539L34.2569 211.389C32.3084 210.816 30.2284 210.877 28.317 211.564C26.4056 212.251 24.7616 213.527 23.6222 215.209C22.4827 216.891 21.9067 218.891 21.9772 220.922C22.0477 222.952 22.7611 224.908 24.0145 226.506C25.2679 228.105 26.9965 229.264 28.9509 229.816C30.9053 230.369 32.9845 230.285 34.8886 229.579C36.7927 228.872 38.4233 227.579 39.5451 225.885C40.6669 224.192 41.222 222.185 41.1302 220.155Z" fill="#57B894"/>
<path d="M24.0154 285.221C23.0076 287.176 21.359 288.724 19.3459 289.607C17.3328 290.49 15.0775 290.654 12.9581 290.071C10.8386 289.488 8.98381 288.194 7.70446 286.406C6.4251 284.618 5.79898 282.444 5.93101 280.249C6.06304 278.054 6.94521 275.971 8.42966 274.349C9.91412 272.727 11.9106 271.665 14.0846 271.341C16.2586 271.017 18.478 271.45 20.3708 272.568C22.2635 273.686 23.7146 275.421 24.4809 277.482L18.4771 282.365L25.0834 280.831C25.085 282.359 24.7186 283.865 24.0154 285.221Z" fill="#57B894"/>
<path d="M19.2233 266.558C17.9621 266.619 16.7012 266.431 15.513 266.004C14.3248 265.576 13.2327 264.918 12.2995 264.067C11.3662 263.216 10.6103 262.189 10.075 261.045C9.5397 259.901 9.23565 258.663 9.18034 257.401C9.10454 255.897 9.38854 254.396 10.0087 253.024C10.584 251.739 11.4338 250.596 12.4983 249.676C13.5628 248.755 14.8162 248.079 16.17 247.695L16.1221 251.661L18.2923 247.353C19.5534 247.291 20.8143 247.48 22.0026 247.907C23.1908 248.334 24.2829 248.992 25.2161 249.843C26.1494 250.694 26.9053 251.721 27.4406 252.865C27.9759 254.009 28.2799 255.248 28.3352 256.51C28.3915 257.619 28.2524 258.73 27.9245 259.791C27.3463 261.677 26.2005 263.34 24.6433 264.551C23.0861 265.762 21.1934 266.463 19.2233 266.558Z" fill="#57B894"/>
<path d="M42.5748 251.031C41.1 251.085 39.6325 250.798 38.2869 250.192C36.9412 249.585 35.7537 248.676 34.8169 247.535C33.8801 246.395 33.2193 245.053 32.8861 243.614C32.5528 242.176 32.556 240.68 32.8956 239.243C33.2351 237.806 33.9017 236.467 34.8434 235.33C35.7852 234.193 36.9766 233.29 38.3249 232.689C39.6731 232.089 41.1418 231.808 42.6164 231.868C44.091 231.929 45.5317 232.329 46.8261 233.039L45.1283 237.696L48.6197 234.34C50.0312 235.618 51.0305 237.287 51.4901 239.135C51.9497 240.983 51.8488 242.926 51.2004 244.717C50.5519 246.507 49.3853 248.064 47.8491 249.188C46.3129 250.313 44.4768 250.955 42.5748 251.031Z" fill="#57B894"/>
<path opacity="0.1" d="M39.8364 222.717C37.6251 222.964 35.4618 223.655 33.2369 223.792C31.012 223.929 28.568 223.395 27.1646 221.662C26.4047 220.731 26.0213 219.553 25.3847 218.539C24.7774 217.593 23.9477 216.81 22.9681 216.258C22.3833 217.471 22.0603 218.793 22.0202 220.139C21.9802 221.485 22.2239 222.824 22.7355 224.07C23.2471 225.315 24.0152 226.439 24.9896 227.368C25.9641 228.296 27.1232 229.009 28.3914 229.46C29.6595 229.911 31.0084 230.089 32.3501 229.984C33.6919 229.879 34.9964 229.492 36.1787 228.849C37.3611 228.205 38.3948 227.32 39.2125 226.251C40.0303 225.181 40.6137 223.952 40.9249 222.642C40.5621 222.655 40.1992 222.683 39.8364 222.717Z" fill="black"/>
<path opacity="0.1" d="M42.5747 251.031C40.9216 251.103 39.2778 250.747 37.802 249.999C36.3262 249.25 35.0683 248.133 34.1496 246.756C33.231 245.38 32.6826 243.789 32.5575 242.138C32.4324 240.488 32.7348 238.832 33.4354 237.333C34.2017 237.846 34.8599 238.504 35.3728 239.271C36.0574 240.305 36.4682 241.497 37.276 242.449C38.7684 244.209 41.3288 244.784 43.6427 244.675C45.9566 244.565 48.2021 243.915 50.4886 243.702C50.8104 243.702 51.139 243.648 51.4607 243.641C50.9848 245.672 49.8597 247.493 48.2561 248.826C46.6525 250.16 44.6578 250.934 42.5747 251.031Z" fill="black"/>
<path opacity="0.1" d="M19.2233 266.558C17.9621 266.619 16.7012 266.431 15.513 266.004C14.3248 265.576 13.2327 264.918 12.2995 264.067C11.3662 263.216 10.6103 262.189 10.075 261.045C9.5397 259.901 9.23565 258.663 9.18034 257.401C9.10454 255.897 9.38854 254.396 10.0087 253.024C10.8074 253.543 11.5036 254.205 12.0625 254.976C12.8087 256.031 13.2742 257.243 14.1163 258.216C15.7387 260.024 18.4634 260.661 20.9211 260.599C23.3788 260.537 25.59 259.962 27.9518 259.784C27.3733 261.676 26.2238 263.343 24.6611 264.555C23.0984 265.768 21.199 266.468 19.2233 266.558Z" fill="black"/>
<path opacity="0.1" d="M24.0155 285.221C23.5008 286.372 22.7647 287.409 21.8492 288.275C20.9336 289.141 19.8566 289.818 18.6796 290.267C17.5026 290.716 16.2486 290.929 14.9894 290.894C13.7301 290.858 12.4901 290.575 11.3403 290.06C10.1904 289.545 9.15323 288.809 8.28788 287.893C7.42252 286.977 6.74597 285.899 6.29684 284.722C5.84772 283.544 5.63483 282.29 5.67031 281.03C5.70579 279.77 5.98897 278.53 6.50365 277.379C7.2937 277.899 8.00397 278.531 8.61219 279.256C9.52269 280.372 10.1251 281.633 11.1794 282.68C13.1442 284.612 16.3138 285.42 19.1412 285.482C20.7696 285.488 22.397 285.401 24.0155 285.221Z" fill="black"/>
<path d="M0 299.392C0 299.392 7.58526 299.159 9.8718 297.529C12.1583 295.899 21.5098 293.954 22.1054 296.57C22.701 299.187 33.4971 309.583 24.9397 309.624C16.3823 309.666 5.04542 308.289 2.76573 306.885C0.486045 305.481 0 299.392 0 299.392Z" fill="#656380"/>
<path opacity="0.2" d="M25.0903 308.713C16.526 308.782 5.19604 307.378 2.91635 305.974C1.17748 304.919 0.486057 301.118 0.253296 299.365H0C0 299.365 0.479214 305.481 2.73837 306.898C4.99752 308.316 16.348 309.693 24.9123 309.638C27.3836 309.638 28.2325 308.741 28.1915 307.433C27.8697 308.207 26.9318 308.7 25.0903 308.713Z" fill="black"/>
<g clip-path="url(#clip0)">
<path d="M103.578 35.6736C111.691 35.6736 118.268 30.5416 118.268 24.2108C118.268 17.8801 111.691 12.748 103.578 12.748C95.4656 12.748 88.889 17.8801 88.889 24.2108C88.889 30.5416 95.4656 35.6736 103.578 35.6736Z" fill="#3F3D56"/>
<path d="M132.957 84.1693C144.64 84.1693 154.11 74.6945 154.11 63.0066C154.11 51.3188 144.64 41.844 132.957 41.844C121.275 41.844 111.804 51.3188 111.804 63.0066C111.804 74.6945 121.275 84.1693 132.957 84.1693Z" fill="#3F3D56"/>
<path d="M139.421 113.858H118.268V140.898H139.421V113.858Z" fill="#FBBEBE"/>
<path d="M154.11 106.213H147.647V119.147H154.11V106.213Z" fill="#FBBEBE"/>
<path d="M121.059 245.389L118.416 253.326C118.416 253.326 117.239 259.204 121.059 259.496C124.879 259.789 131.054 258.615 131.054 258.615C131.054 258.615 131.935 255.97 131.054 253.619C130.173 251.267 127.53 244.8 127.53 244.8L121.059 245.389Z" fill="#3C354C"/>
<path d="M141.035 245.682C141.035 245.682 136.922 255.971 140.154 257.733C143.386 259.496 147.795 258.026 151.319 259.496C154.843 260.967 164.539 257.441 164.539 257.441C164.539 257.441 165.716 254.208 159.252 253.326C159.252 253.326 152.218 248.034 152.218 246.86C152.218 245.685 148.106 245.682 148.106 245.682H141.035Z" fill="#3C354C"/>
<path d="M140.154 128.409C140.154 128.409 116.065 133.406 113.129 131.935C110.194 130.465 107.254 151.935 107.254 151.935C107.254 151.935 106.077 164.868 110.19 182.209C114.303 199.549 110.19 208.075 110.19 208.075C110.19 208.075 110.779 224.534 115.188 232.178C119.597 239.823 119.593 246.874 119.593 246.874C119.593 246.874 128.108 247.756 128.407 245.697C128.407 245.697 124.879 237.467 125.468 229.826C126.057 222.186 123.706 207.486 123.706 207.486C123.706 207.486 127.526 188.968 126.938 181.931C126.349 174.894 128.996 159.887 130.462 162.531C131.928 165.176 135.752 178.109 135.752 180.757C135.752 183.405 137.233 201.034 138.103 202.212C138.973 203.39 138.688 206.916 138.395 208.679C138.103 210.442 138.103 223.667 139.569 230.723C141.035 237.778 139.865 245.711 140.157 246.889C140.45 248.067 148.972 247.182 149.264 245.123C149.264 245.123 150.442 232.486 151.03 230.723C151.619 228.96 151.896 206.59 151.896 206.59C151.896 206.59 152.481 189.249 153.07 187.486C153.659 185.723 154.551 147.805 150.719 143.413C146.888 139.02 148.368 127.835 148.368 127.835L140.154 128.409Z" fill="#3F3D56"/>
<path d="M120.352 77.2065C119.264 79.2583 118.168 81.3286 117.487 83.5545C116.805 85.7804 116.569 88.1915 117.209 90.4285C117.667 91.8258 118.304 93.1578 119.104 94.3914C119.741 95.5703 120.548 96.6486 121.5 97.5914C123.721 99.621 126.949 100.028 129.947 100.347C130.462 100.433 130.987 100.424 131.499 100.321C131.909 100.202 132.288 99.9945 132.609 99.7136C133.923 98.6025 134.519 96.9062 135.001 95.2692C136.145 91.376 136.965 87.3945 137.451 83.3656C137.564 82.7286 137.564 82.0767 137.451 81.4398C137.192 80.3287 136.304 79.4657 135.66 78.5102C134.888 77.3683 134.447 76.0352 134.386 74.6584C134.36 73.988 134.386 73.2473 133.964 72.7362C133.683 72.458 133.343 72.2477 132.968 72.1214C131.217 71.3806 129.47 70.6399 127.715 69.9288C126.656 69.4918 124.754 68.3288 123.643 69.1881C122.692 69.9288 123.151 71.6473 122.743 72.6769C122.118 74.2399 121.137 75.725 120.352 77.2065Z" fill="#FBBEBE"/>
<path opacity="0.1" d="M120.352 77.2065C119.264 79.2583 118.168 81.3286 117.487 83.5545C116.805 85.7804 116.569 88.1915 117.209 90.4285C117.667 91.8258 118.304 93.1578 119.104 94.3914C119.741 95.5703 120.548 96.6486 121.5 97.5914C123.721 99.621 126.949 100.028 129.947 100.347C130.462 100.433 130.987 100.424 131.499 100.321C131.909 100.202 132.288 99.9945 132.609 99.7136C133.923 98.6025 134.519 96.9062 135.001 95.2692C136.145 91.376 136.965 87.3945 137.451 83.3656C137.564 82.7286 137.564 82.0767 137.451 81.4398C137.192 80.3287 136.304 79.4657 135.66 78.5102C134.888 77.3683 134.447 76.0352 134.386 74.6584C134.36 73.988 134.386 73.2473 133.964 72.7362C133.683 72.458 133.343 72.2477 132.968 72.1214C131.217 71.3806 129.47 70.6399 127.715 69.9288C126.656 69.4918 124.754 68.3288 123.643 69.1881C122.692 69.9288 123.151 71.6473 122.743 72.6769C122.118 74.2399 121.137 75.725 120.352 77.2065Z" fill="black"/>
<path d="M131.928 77.8546C137.608 77.8546 142.212 73.2482 142.212 67.5658C142.212 61.8835 137.608 57.2771 131.928 57.2771C126.248 57.2771 121.644 61.8835 121.644 67.5658C121.644 73.2482 126.248 77.8546 131.928 77.8546Z" fill="#FBBEBE"/>
<path d="M135.537 93.5136C133.59 94.2136 131.58 94.8173 129.511 94.8913C127.96 94.9069 126.414 94.7415 124.902 94.3987C121.778 93.7771 118.71 92.9014 115.728 91.7803C115.091 93.0358 114.921 94.4691 114.866 95.8765C114.706 100.132 115.554 104.354 115.88 108.602C116.291 114.002 115.88 119.521 117.268 124.75C117.348 123.861 117.694 123.017 118.26 122.328C118.732 121.819 119.296 121.405 119.923 121.106C122.724 119.657 125.951 119.255 129.022 119.972C130.803 120.395 132.694 121.184 134.382 120.476C135.389 120.05 136.119 119.154 136.678 118.213C137.627 116.516 138.304 114.68 138.684 112.773C139.795 107.869 139.943 102.799 140.076 97.7691C140.113 96.4246 140.691 92.4284 139.576 91.4432C138.795 90.7581 138.566 91.7358 138.003 92.2469C137.271 92.8251 136.434 93.2553 135.537 93.5136Z" fill="#F2F2F2"/>
<path d="M121.063 75.8509C120.378 75.3139 119.364 75.4805 118.608 75.9361C117.853 76.3916 117.242 77.0213 116.476 77.4361C114.351 78.5879 111.497 77.7435 109.479 79.0842C107.584 80.3471 107.258 82.9471 107.11 85.2211C106.74 90.9988 106.421 96.8172 105.033 102.439C104.663 103.921 104.219 105.439 104.359 106.965C104.47 107.837 104.676 108.694 104.974 109.521L106.795 115.213C107.639 117.858 108.495 120.543 108.583 123.317C108.672 126.091 108.021 128.728 107.373 131.376C106.092 136.593 105.259 141.91 104.881 147.268C104.767 149.042 104.719 150.894 105.437 152.52C106.177 154.22 107.68 155.483 109.265 156.442C110.849 157.402 112.57 158.142 114.122 159.161C117.235 161.209 119.734 164.435 123.376 165.276C125.046 165.646 126.793 165.498 128.474 165.172C128.474 165.172 127.523 121.943 124.876 115.769C122.229 109.595 119.882 82.8508 119.882 81.9693C119.882 81.0879 121.063 75.8509 121.063 75.8509Z" fill="#7E7CFF"/>
<path d="M135.36 77.2656C135.36 77.2656 149.261 77.2656 151.319 84.6137C153.377 91.9617 145.444 104.013 145.444 104.013C145.444 104.013 148.676 127.82 150.142 130.172C151.608 132.524 151.026 137.209 151.026 137.209C152.091 140.434 152.292 143.882 151.611 147.209C150.438 152.498 146.029 161.905 146.029 161.905C146.029 161.905 140.154 161.905 138.684 165.431C137.214 168.957 136.922 150.146 136.922 150.146C136.922 150.146 131.636 115.758 131.928 113.702C132.22 111.647 133.69 94.595 134.279 89.8914C134.867 85.1877 136.148 79.0286 135.36 77.2656Z" fill="#7E7CFF"/>
<path d="M146.029 81.9694C146.029 81.9694 152.789 84.0249 152.789 86.3767C152.789 88.7285 154.858 101.365 154.858 105.48C154.858 109.595 153.977 110.184 154.858 111.654C155.739 113.124 145.459 112.536 145.459 112.536L143.589 95.784L146.029 81.9694Z" fill="#6461FF"/>
<path d="M106.073 103.132C106.073 103.132 119.297 104.013 121.648 102.247C123.998 100.48 133.986 104.599 134.867 106.95C135.748 109.302 120.763 109.595 118.416 109.595C116.069 109.595 104.9 113.124 104.9 113.124L106.073 103.132Z" fill="#A0616A"/>
<path d="M78.8529 240.045C78.8529 240.045 72.6892 255.6 75.8913 257.452C79.0935 259.304 112.859 257.985 112.859 257.985C112.859 257.985 118.482 254.504 112.056 252.089C112.056 252.089 106.695 251.822 103.216 249.678C99.7357 247.534 95.7116 243.515 95.7116 243.515C95.7116 243.515 95.4451 237.619 93.3017 238.96C92.6605 239.382 92.1149 239.934 91.6998 240.58C91.2848 241.227 91.0095 241.952 90.8917 242.711L78.8529 240.045Z" fill="#3F3D56"/>
<path opacity="0.1" d="M78.8529 240.045C78.8529 240.045 72.6892 255.6 75.8913 257.452C79.0935 259.304 112.859 257.985 112.859 257.985C112.859 257.985 118.482 254.504 112.056 252.089C112.056 252.089 106.695 251.822 103.216 249.678C99.7357 247.534 95.7116 243.515 95.7116 243.515C95.7116 243.515 95.4451 237.619 93.3017 238.96C92.6605 239.382 92.1149 239.934 91.6998 240.58C91.2848 241.227 91.0095 241.952 90.8917 242.711L78.8529 240.045Z" fill="black"/>
<path d="M69.3426 244.8C69.3426 244.8 62.5865 261.837 66.1108 263.904C69.635 265.97 106.655 264.493 106.655 264.493C106.655 264.493 112.826 260.674 105.774 258.026C105.774 258.026 99.8986 257.733 96.0782 255.382C92.2577 253.03 87.8524 248.611 87.8524 248.611C87.8524 248.611 87.5599 242.145 85.2092 243.615C84.5057 244.078 83.9071 244.684 83.4518 245.392C82.9966 246.101 82.6948 246.897 82.566 247.73L69.3426 244.8Z" fill="#3F3D56"/>
<path d="M104.019 136.639L99.906 173.675C99.906 173.675 98.4252 191.312 94.031 195.131C94.031 195.131 94.031 200.716 92.5502 202.479L90.4919 225.701C90.4919 225.701 93.4313 234.219 93.1388 235.7C92.8464 237.182 94.3123 241.871 94.0199 242.46C93.7274 243.049 79.9154 242.46 79.9154 242.46L82.8548 195.138L91.9616 129.302L104.019 136.639Z" fill="#3C354C"/>
<path opacity="0.1" d="M104.019 136.639L99.906 173.675C99.906 173.675 98.4252 191.312 94.031 195.131C94.031 195.131 94.031 200.716 92.5502 202.479L90.4919 225.701C90.4919 225.701 93.4313 234.219 93.1388 235.7C92.8464 237.182 94.3123 241.871 94.0199 242.46C93.7274 243.049 79.9154 242.46 79.9154 242.46L82.8548 195.138L91.9616 129.302L104.019 136.639Z" fill="black"/>
<path d="M96.6742 135.461C96.6742 135.461 93.4424 165.735 91.9727 172.201C91.0487 176.46 90.4595 180.784 90.2106 185.134C90.2106 185.134 89.9181 194.542 87.2712 197.186C86.4988 197.952 85.892 198.868 85.4882 199.877C85.0845 200.887 84.8925 201.969 84.9242 203.056C84.9242 203.056 82.2773 232.741 83.7469 236.271C85.2166 239.8 86.6863 242.737 85.2277 245.085C83.7692 247.434 67.599 247.437 67.599 245.674C67.599 243.911 67.599 242.441 66.7179 241.56C65.8368 240.678 66.7179 235.093 66.7179 235.093C66.7179 235.093 63.1936 208.934 66.4255 201.293C69.6573 193.653 71.127 172.775 71.127 172.775C71.127 172.775 68.7762 148.968 65.8368 145.146C62.8975 141.324 66.4255 127.806 66.4255 127.806L96.6742 135.461Z" fill="#3C354C"/>
<path d="M88.404 41.4477C88.7446 42.2255 89.5627 42.6588 90.3068 43.0699C94.6196 45.4476 98.229 48.8957 101.783 52.3031C100.896 49.2925 101.086 46.0667 102.32 43.181C102.742 42.1995 103.301 41.1403 102.997 40.1144C102.771 39.3737 102.131 38.8107 101.516 38.3292C100.065 37.2065 98.5484 36.1713 96.974 35.2293C95.8635 34.57 93.6127 32.8182 92.3503 33.0071C92.2837 34.7145 92.2503 36.2404 91.5025 37.8218C91.3174 38.2144 88.5336 41.744 88.404 41.4477Z" fill="#A0616A"/>
<path d="M103.43 45.2254C110.083 45.2254 115.476 39.8297 115.476 33.1737C115.476 26.5178 110.083 21.1221 103.43 21.1221C96.7774 21.1221 91.3841 26.5178 91.3841 33.1737C91.3841 39.8297 96.7774 45.2254 103.43 45.2254Z" fill="#A0616A"/>
<path d="M104.019 61.6882C104.019 61.6882 106.073 51.3994 100.198 47.8735C94.3234 44.3477 87.5674 40.2329 87.5674 40.2329C87.5674 40.2329 85.5091 39.9366 84.628 44.3477C84.628 44.3477 67.884 47.581 66.1182 63.4511C64.3524 79.3212 67.2954 102.543 67.2954 102.543C67.2954 102.543 64.6522 122.824 61.4204 133.698C61.4204 133.698 58.7735 136.05 70.5272 132.524C82.281 128.998 102.842 142.524 102.842 142.524C102.842 142.524 104.9 140.465 104.9 138.994C104.9 137.524 107.251 128.995 107.251 128.995C107.251 128.995 109.305 92.8433 110.186 88.7285C111.067 84.6138 106.662 62.277 104.019 61.6882Z" fill="#6461FF"/>
<path d="M85.8052 81.9692C85.8052 81.9692 101.961 72.562 98.7288 60.5103C95.497 48.4586 88.4484 44.6402 88.4484 44.6402C88.4484 44.6402 76.9909 40.818 67.2954 53.1585L67.884 58.7437C67.884 58.7437 78.4605 37.2884 89.9181 50.8067C101.376 64.3251 85.8052 81.9692 85.8052 81.9692Z" fill="#13F1FC"/>
<path d="M68.469 53.7512V101.947L65.4667 118.387L64.0636 126.05H53.7944L39.4011 120.758V85.2026C39.4011 85.2026 51.4436 61.3919 55.264 56.9845C59.0845 52.5772 68.469 53.7512 68.469 53.7512Z" fill="#13F1FC"/>
<path opacity="0.1" d="M65.4629 118.391L64.0636 126.054H53.7795L39.3863 120.765L65.4629 118.391Z" fill="black"/>
<path d="M64.9446 108.124L90.2105 77.262L67.8803 109.302L65.5296 109.887L64.9446 108.124Z" fill="#13F1FC"/>
<path d="M100.591 34.4182C101.276 33.9552 102.135 33.8701 102.956 33.7886C103.778 33.7071 104.637 33.596 105.292 33.0923C106.429 32.2182 106.514 30.5294 107.347 29.3627C108.55 27.6701 110.953 27.4664 113.029 27.5479C114.299 27.5998 115.665 27.6775 116.731 26.9924C117.798 26.3072 118.323 24.9554 118.693 23.7072C119.134 22.2258 119.415 20.4184 118.323 19.3221C117.583 18.5592 116.383 18.4073 115.547 17.7369C114.71 17.0666 114.321 15.9148 113.851 14.9111C113.315 13.685 112.466 12.6212 111.389 11.8259C109.812 10.7148 107.799 10.4852 105.877 10.5037C103.956 10.5222 102.027 10.7778 100.121 10.5408C98.5585 10.3482 97 9.82966 95.4451 10.0593C93.4609 10.3519 91.8209 11.8519 90.8399 13.6037C89.8589 15.3555 89.4442 17.3555 89.037 19.3184L87.9264 24.6628C87.5859 26.322 87.2416 28.022 87.5044 29.6923C88.0523 33.159 91.1175 35.9145 91.3285 39.4144C91.5301 38.4475 91.9684 37.5457 92.6042 36.7901C93.24 36.0344 94.0533 35.4485 94.9713 35.0848C95.2009 34.9726 95.4614 34.94 95.7117 34.9923C96.0152 35.0923 96.1929 35.396 96.3854 35.6515C96.8889 36.3219 98.4696 37.3367 99.347 36.8626C100.184 36.4367 99.5839 35.1034 100.591 34.4182Z" fill="#3F3D56"/>
<path d="M70.2348 89.3174C70.2348 89.3174 68.1765 102.247 76.6947 101.073C76.6947 101.073 81.1038 100.484 81.6924 101.073C82.281 101.662 104.019 97.8395 106.958 94.6062C106.958 94.6062 110.483 93.4321 112.245 95.1951C114.007 96.958 131.636 98.7209 126.353 93.4284C121.07 88.1359 112.841 86.9619 112.841 86.9619L101.676 87.547C101.676 87.547 95.8006 89.3137 92.2763 87.547C88.752 85.7804 78.753 86.3915 78.753 86.3915L70.2348 89.3174Z" fill="#A0616A"/>
<path d="M82.2773 48.4624C82.2773 48.4624 69.0576 49.9439 69.0576 69.0362V93.4284C69.0576 93.4284 76.4023 90.1951 77.8719 90.4877C79.3416 90.7803 85.2166 86.6655 85.2166 86.6655C85.2166 86.6655 91.9727 70.7991 91.3841 66.3918C90.7955 61.9844 91.0916 49.0476 82.2773 48.4624Z" fill="#3F3D56"/>
<path d="M142.797 95.7803L129.577 105.188L137.803 106.069L149.261 96.3692L142.797 95.7803Z" fill="#3F3D56"/>
<path d="M153.081 109.891C153.081 109.891 156.313 119.891 151.907 122.824C147.502 125.758 140.154 112.536 140.154 112.536C140.154 112.536 132.22 103.132 137.511 101.073C142.801 99.0135 144.959 107.98 144.959 107.98L151.896 114.006L153.081 109.891Z" fill="#FBBEBE"/>
<path d="M132.957 67.4177C139.446 67.4177 144.707 64.0615 144.707 59.9215C144.707 55.7814 139.446 52.4253 132.957 52.4253C126.468 52.4253 121.207 55.7814 121.207 59.9215C121.207 64.0615 126.468 67.4177 132.957 67.4177Z" fill="#3F3D56"/>
<path d="M135.012 50.3698C139.716 50.3698 143.53 46.5543 143.53 41.8477C143.53 37.141 139.716 33.3256 135.012 33.3256C130.307 33.3256 126.493 37.141 126.493 41.8477C126.493 46.5543 130.307 50.3698 135.012 50.3698Z" fill="#3F3D56"/>
<path d="M103.43 31.559C109.676 31.559 114.74 28.9274 114.74 25.6813C114.74 22.4351 109.676 19.8036 103.43 19.8036C97.1842 19.8036 92.1208 22.4351 92.1208 25.6813C92.1208 28.9274 97.1842 31.559 103.43 31.559Z" fill="#3F3D56"/>
<path d="M92.8538 36.5551C95.0435 36.5551 96.8186 32.146 96.8186 26.7071C96.8186 21.2682 95.0435 16.8591 92.8538 16.8591C90.6641 16.8591 88.889 21.2682 88.889 26.7071C88.889 32.146 90.6641 36.5551 92.8538 36.5551Z" fill="#3F3D56"/>
</g>
<g filter="url(#filter0_d)">
<path d="M163 38C163 36.8954 163.895 36 165 36H337C338.105 36 339 36.8954 339 38V71C339 72.1046 338.105 73 337 73H165C163.895 73 163 72.1046 163 71V38Z" fill="white"/>
</g>
<ellipse cx="180.638" cy="61.1188" rx="5.6383" ry="1.54777" fill="#F2F2F2"/>
<path fill-rule="evenodd" clip-rule="evenodd" d="M180.421 58.2445C180.421 58.2445 184.542 54.7067 184.542 51.8323C184.542 49.5121 182.697 47.6312 180.421 47.6312C178.146 47.6312 176.301 49.5121 176.301 51.8323C176.301 54.9278 180.421 58.2445 180.421 58.2445ZM180.421 53.3801C181.499 53.3801 182.373 52.4891 182.373 51.3901C182.373 50.2911 181.499 49.4001 180.421 49.4001C179.344 49.4001 178.47 50.2911 178.47 51.3901C178.47 52.4891 179.344 53.3801 180.421 53.3801Z" fill="#13F1FC"/>
<path d="M171 73L157 88L188 73H171Z" fill="white"/>
<path d="M194.092 49.2H200.112V50.74H195.716V53.12H199.104V54.66H195.716V59H194.092V49.2ZM202.472 49.2H204.04V50.81H202.472V49.2ZM202.472 52.056H204.04V59H202.472V52.056ZM210.571 51.93C211.476 51.93 212.153 52.2147 212.601 52.784C213.049 53.3533 213.273 54.1373 213.273 55.136V59H211.719V55.234C211.719 54.5433 211.597 54.0393 211.355 53.722C211.121 53.4047 210.729 53.246 210.179 53.246C209.525 53.246 209.021 53.4747 208.667 53.932V59H207.099V52.056H208.485L208.541 52.63C209.138 52.1633 209.815 51.93 210.571 51.93ZM222.536 48.5V59H221.094L221.024 58.412C220.492 58.8973 219.834 59.14 219.05 59.14C218.406 59.14 217.842 58.9813 217.356 58.664C216.871 58.3373 216.498 57.9033 216.236 57.362C215.975 56.8113 215.844 56.2047 215.844 55.542C215.844 54.8887 215.97 54.2867 216.222 53.736C216.484 53.1853 216.852 52.7467 217.328 52.42C217.814 52.0933 218.388 51.93 219.05 51.93C219.806 51.93 220.446 52.154 220.968 52.602V48.5H222.536ZM219.288 57.824C219.839 57.824 220.273 57.6233 220.59 57.222C220.917 56.8207 221.08 56.2607 221.08 55.542C221.08 54.8327 220.917 54.2727 220.59 53.862C220.264 53.4513 219.83 53.246 219.288 53.246C218.719 53.246 218.271 53.4607 217.944 53.89C217.618 54.31 217.454 54.8607 217.454 55.542C217.454 56.214 217.618 56.7647 217.944 57.194C218.271 57.614 218.719 57.824 219.288 57.824ZM231.665 59.14C231.067 59.14 230.573 58.9533 230.181 58.58C229.798 58.1973 229.607 57.698 229.607 57.082C229.607 56.4753 229.821 55.99 230.251 55.626C230.68 55.262 231.193 55.0053 231.791 54.856C232.397 54.6973 232.999 54.6087 233.597 54.59C233.587 54.1047 233.48 53.7687 233.275 53.582C233.069 53.386 232.729 53.288 232.253 53.288C231.954 53.288 231.655 53.3347 231.357 53.428C231.067 53.512 230.741 53.652 230.377 53.848L230.209 52.574C230.993 52.1447 231.819 51.93 232.687 51.93C233.527 51.93 234.152 52.1633 234.563 52.63C234.973 53.0873 235.179 53.848 235.179 54.912V56.634C235.179 56.998 235.193 57.264 235.221 57.432C235.258 57.5907 235.319 57.7027 235.403 57.768C235.496 57.8333 235.645 57.866 235.851 57.866H236.047L235.865 59.14H235.431C234.983 59.14 234.633 59.0653 234.381 58.916C234.138 58.7667 233.942 58.5473 233.793 58.258C233.55 58.5287 233.242 58.7433 232.869 58.902C232.495 59.0607 232.094 59.14 231.665 59.14ZM232.225 57.922C232.458 57.922 232.701 57.866 232.953 57.754C233.214 57.6327 233.433 57.4693 233.611 57.264V55.654C232.892 55.682 232.313 55.808 231.875 56.032C231.445 56.256 231.231 56.5827 231.231 57.012C231.231 57.6187 231.562 57.922 232.225 57.922ZM246.166 59.14C245.401 59.14 244.743 58.9813 244.192 58.664C243.651 58.3467 243.24 57.9173 242.96 57.376C242.68 56.8347 242.54 56.228 242.54 55.556C242.54 54.8653 242.676 54.2447 242.946 53.694C243.226 53.1433 243.642 52.7093 244.192 52.392C244.743 52.0747 245.424 51.916 246.236 51.916C246.936 51.916 247.562 52.0607 248.112 52.35L247.944 53.638C247.403 53.3767 246.866 53.246 246.334 53.246C245.634 53.246 245.093 53.4513 244.71 53.862C244.328 54.2727 244.136 54.828 244.136 55.528C244.136 56.2187 244.328 56.774 244.71 57.194C245.093 57.614 245.625 57.824 246.306 57.824C246.885 57.824 247.436 57.6747 247.958 57.376L248.126 58.678C247.884 58.818 247.59 58.93 247.244 59.014C246.899 59.098 246.54 59.14 246.166 59.14ZM253.757 59.14C253.038 59.14 252.413 58.9813 251.881 58.664C251.349 58.3373 250.938 57.8987 250.649 57.348C250.369 56.7973 250.229 56.1907 250.229 55.528C250.229 54.8653 250.369 54.2587 250.649 53.708C250.938 53.1573 251.349 52.7233 251.881 52.406C252.413 52.0793 253.038 51.916 253.757 51.916C254.485 51.916 255.115 52.0793 255.647 52.406C256.179 52.7233 256.585 53.1573 256.865 53.708C257.145 54.2587 257.285 54.8653 257.285 55.528C257.285 56.1907 257.145 56.7973 256.865 57.348C256.585 57.8987 256.179 58.3373 255.647 58.664C255.115 58.9813 254.485 59.14 253.757 59.14ZM253.757 57.824C254.364 57.824 254.835 57.6187 255.171 57.208C255.516 56.7973 255.689 56.2373 255.689 55.528C255.689 54.828 255.516 54.2727 255.171 53.862C254.835 53.442 254.364 53.232 253.757 53.232C253.15 53.232 252.679 53.442 252.343 53.862C252.007 54.2727 251.839 54.828 251.839 55.528C251.839 56.2373 252.007 56.7973 252.343 57.208C252.679 57.6187 253.15 57.824 253.757 57.824ZM263.41 51.93C264.315 51.93 264.992 52.2147 265.44 52.784C265.888 53.3533 266.112 54.1373 266.112 55.136V59H264.558V55.234C264.558 54.5433 264.436 54.0393 264.194 53.722C263.96 53.4047 263.568 53.246 263.018 53.246C262.364 53.246 261.86 53.4747 261.506 53.932V59H259.938V52.056H261.324L261.38 52.63C261.977 52.1633 262.654 51.93 263.41 51.93ZM271.077 59.14C270.228 59.14 269.439 58.958 268.711 58.594L268.865 57.208C269.584 57.6747 270.303 57.908 271.021 57.908C271.404 57.908 271.693 57.8473 271.889 57.726C272.095 57.5953 272.197 57.404 272.197 57.152C272.197 56.872 272.095 56.662 271.889 56.522C271.684 56.382 271.348 56.228 270.881 56.06C270.2 55.8267 269.682 55.5607 269.327 55.262C268.982 54.9633 268.809 54.5293 268.809 53.96C268.809 53.3627 269.033 52.8727 269.481 52.49C269.939 52.1073 270.578 51.916 271.399 51.916C272.165 51.916 272.851 52.084 273.457 52.42L273.303 53.778C272.995 53.554 272.692 53.3813 272.393 53.26C272.095 53.1387 271.773 53.078 271.427 53.078C271.082 53.078 270.816 53.148 270.629 53.288C270.443 53.4187 270.349 53.61 270.349 53.862C270.349 54.0487 270.401 54.2027 270.503 54.324C270.606 54.4453 270.751 54.548 270.937 54.632C271.133 54.716 271.437 54.8327 271.847 54.982C272.473 55.2153 272.949 55.486 273.275 55.794C273.611 56.0927 273.779 56.5173 273.779 57.068C273.779 57.6933 273.555 58.1973 273.107 58.58C272.659 58.9533 271.983 59.14 271.077 59.14ZM282.318 52.056V59H280.876L280.806 58.468C280.601 58.6733 280.349 58.8367 280.05 58.958C279.761 59.0793 279.453 59.14 279.126 59.14C278.165 59.14 277.456 58.86 276.998 58.3C276.541 57.74 276.312 56.9373 276.312 55.892V52.056H277.88V55.766C277.88 56.4567 277.992 56.97 278.216 57.306C278.45 57.642 278.823 57.81 279.336 57.81C279.943 57.81 280.414 57.5907 280.75 57.152V52.056H282.318ZM287.148 59.14C286.551 59.14 286.103 58.9767 285.804 58.65C285.515 58.314 285.37 57.8893 285.37 57.376V48.5H286.924V56.648C286.924 57.04 286.947 57.32 286.994 57.488C287.041 57.6467 287.125 57.7493 287.246 57.796C287.367 57.8427 287.573 57.866 287.862 57.866L287.708 59.14H287.148ZM292.553 59.14C291.946 59.14 291.484 58.9673 291.167 58.622C290.859 58.2767 290.705 57.8613 290.705 57.376V53.316H289.655L289.795 52.056H290.705V50.46L292.273 50.292V52.056H293.911V53.316H292.273V56.648C292.273 57.0587 292.296 57.3433 292.343 57.502C292.389 57.6513 292.487 57.7493 292.637 57.796C292.795 57.8427 293.075 57.866 293.477 57.866H293.897L293.757 59.14H292.553ZM297.954 59.14C297.357 59.14 296.862 58.9533 296.47 58.58C296.088 58.1973 295.896 57.698 295.896 57.082C295.896 56.4753 296.111 55.99 296.54 55.626C296.97 55.262 297.483 55.0053 298.08 54.856C298.687 54.6973 299.289 54.6087 299.886 54.59C299.877 54.1047 299.77 53.7687 299.564 53.582C299.359 53.386 299.018 53.288 298.542 53.288C298.244 53.288 297.945 53.3347 297.646 53.428C297.357 53.512 297.03 53.652 296.666 53.848L296.498 52.574C297.282 52.1447 298.108 51.93 298.976 51.93C299.816 51.93 300.442 52.1633 300.852 52.63C301.263 53.0873 301.468 53.848 301.468 54.912V56.634C301.468 56.998 301.482 57.264 301.51 57.432C301.548 57.5907 301.608 57.7027 301.692 57.768C301.786 57.8333 301.935 57.866 302.14 57.866H302.336L302.154 59.14H301.72C301.272 59.14 300.922 59.0653 300.67 58.916C300.428 58.7667 300.232 58.5473 300.082 58.258C299.84 58.5287 299.532 58.7433 299.158 58.902C298.785 59.0607 298.384 59.14 297.954 59.14ZM298.514 57.922C298.748 57.922 298.99 57.866 299.242 57.754C299.504 57.6327 299.723 57.4693 299.9 57.264V55.654C299.182 55.682 298.603 55.808 298.164 56.032C297.735 56.256 297.52 56.5827 297.52 57.012C297.52 57.6187 297.852 57.922 298.514 57.922ZM308.163 51.93C309.069 51.93 309.745 52.2147 310.193 52.784C310.641 53.3533 310.865 54.1373 310.865 55.136V59H309.311V55.234C309.311 54.5433 309.19 54.0393 308.947 53.722C308.714 53.4047 308.322 53.246 307.771 53.246C307.118 53.246 306.614 53.4747 306.259 53.932V59H304.691V52.056H306.077L306.133 52.63C306.731 52.1633 307.407 51.93 308.163 51.93ZM316.071 59.14C315.464 59.14 315.002 58.9673 314.685 58.622C314.377 58.2767 314.223 57.8613 314.223 57.376V53.316H313.173L313.313 52.056H314.223V50.46L315.791 50.292V52.056H317.429V53.316H315.791V56.648C315.791 57.0587 315.814 57.3433 315.861 57.502C315.908 57.6513 316.006 57.7493 316.155 57.796C316.314 57.8427 316.594 57.866 316.995 57.866H317.415L317.275 59.14H316.071Z" fill="#A5ADB1"/>
<defs>
<filter id="filter0_d" x="121" y="0" width="280" height="141" filterUnits="userSpaceOnUse" color-interpolation-filters="sRGB">
<feFlood flood-opacity="0" result="BackgroundImageFix"/>
<feColorMatrix in="SourceAlpha" type="matrix" values="0 0 0 0 0 0 0 0 0 0 0 0 0 0 0 0 0 0 127 0"/>
<feOffset dx="10" dy="16"/>
<feGaussianBlur stdDeviation="26"/>
<feColorMatrix type="matrix" values="0 0 0 0 0.739879 0 0 0 0 0.826463 0 0 0 0 0.873362 0 0 0 0.4 0"/>
<feBlend mode="normal" in2="BackgroundImageFix" result="effect1_dropShadow"/>
<feBlend mode="normal" in="SourceGraphic" in2="effect1_dropShadow" result="shape"/>
</filter>
<clipPath id="clip0">
<rect x="26" y="10" width="197" height="255" fill="white"/>
</clipPath>
</defs>
</svg>
