<svg width="518" height="158" viewBox="0 0 518 158" fill="none" xmlns="http://www.w3.org/2000/svg">
<path d="M33.144 54.4H35.322L37.896 63.868L40.794 54.49H42.468L45.438 63.724L47.958 54.4H50.136L46.482 67H44.52L41.622 57.964L38.742 67H36.69L33.144 54.4ZM54.8874 67.18C53.8554 67.18 52.9734 66.97 52.2414 66.55C51.5214 66.13 50.9754 65.566 50.6034 64.858C50.2314 64.138 50.0454 63.34 50.0454 62.464C50.0454 61.624 50.2134 60.862 50.5494 60.178C50.8974 59.482 51.4014 58.93 52.0614 58.522C52.7334 58.114 53.5194 57.91 54.4194 57.91C55.2114 57.91 55.8954 58.078 56.4714 58.414C57.0594 58.738 57.5034 59.188 57.8034 59.764C58.1154 60.34 58.2714 61 58.2714 61.744C58.2714 62.128 58.2294 62.494 58.1454 62.842H52.1334C52.2414 63.766 52.5594 64.438 53.0874 64.858C53.6274 65.278 54.2934 65.488 55.0854 65.488C56.0574 65.488 56.9394 65.266 57.7314 64.822L57.8754 66.496C56.9634 66.952 55.9674 67.18 54.8874 67.18ZM56.2194 61.474C56.2194 60.946 56.0694 60.502 55.7694 60.142C55.4694 59.782 55.0134 59.602 54.4014 59.602C53.2374 59.602 52.5054 60.226 52.2054 61.474H56.2194ZM68.1765 67.18C67.1445 67.18 66.2625 66.97 65.5305 66.55C64.8105 66.13 64.2645 65.566 63.8925 64.858C63.5205 64.138 63.3345 63.34 63.3345 62.464C63.3345 61.624 63.5025 60.862 63.8385 60.178C64.1865 59.482 64.6905 58.93 65.3505 58.522C66.0225 58.114 66.8085 57.91 67.7085 57.91C68.5005 57.91 69.1845 58.078 69.7605 58.414C70.3485 58.738 70.7925 59.188 71.0925 59.764C71.4045 60.34 71.5605 61 71.5605 61.744C71.5605 62.128 71.5185 62.494 71.4345 62.842H65.4225C65.5305 63.766 65.8485 64.438 66.3765 64.858C66.9165 65.278 67.5825 65.488 68.3745 65.488C69.3465 65.488 70.2285 65.266 71.0205 64.822L71.1645 66.496C70.2525 66.952 69.2565 67.18 68.1765 67.18ZM69.5085 61.474C69.5085 60.946 69.3585 60.502 69.0585 60.142C68.7585 59.782 68.3025 59.602 67.6905 59.602C66.5265 59.602 65.7945 60.226 65.4945 61.474H69.5085ZM75.1923 62.536L72.2043 58.072H74.5623L76.3983 60.988L78.1083 58.072H80.4843L77.5323 62.482L80.5203 67H78.1803L76.3263 64.084L74.5263 67H72.1683L75.1923 62.536ZM83.749 67.18C82.981 67.18 82.345 66.94 81.841 66.46C81.349 65.968 81.103 65.326 81.103 64.534C81.103 63.754 81.379 63.13 81.931 62.662C82.483 62.194 83.143 61.864 83.911 61.672C84.691 61.468 85.465 61.354 86.233 61.33C86.221 60.706 86.083 60.274 85.819 60.034C85.555 59.782 85.117 59.656 84.505 59.656C84.121 59.656 83.737 59.716 83.353 59.836C82.981 59.944 82.561 60.124 82.093 60.376L81.877 58.738C82.885 58.186 83.947 57.91 85.063 57.91C86.143 57.91 86.947 58.21 87.475 58.81C88.003 59.398 88.267 60.376 88.267 61.744V63.958C88.267 64.426 88.285 64.768 88.321 64.984C88.369 65.188 88.447 65.332 88.555 65.416C88.675 65.5 88.867 65.542 89.131 65.542H89.383L89.149 67.18H88.591C88.015 67.18 87.565 67.084 87.241 66.892C86.929 66.7 86.677 66.418 86.485 66.046C86.173 66.394 85.777 66.67 85.297 66.874C84.817 67.078 84.301 67.18 83.749 67.18ZM84.469 65.614C84.769 65.614 85.081 65.542 85.405 65.398C85.741 65.242 86.023 65.032 86.251 64.768V62.698C85.327 62.734 84.583 62.896 84.019 63.184C83.467 63.472 83.191 63.892 83.191 64.444C83.191 65.224 83.617 65.614 84.469 65.614ZM100.781 57.91C101.957 57.91 102.833 58.258 103.409 58.954C103.985 59.638 104.273 60.628 104.273 61.924V67H102.257V62.032C102.257 61.192 102.113 60.58 101.825 60.196C101.549 59.8 101.087 59.602 100.439 59.602C99.7308 59.602 99.2208 59.818 98.9088 60.25C98.5968 60.682 98.4408 61.252 98.4408 61.96V67H96.4428V62.158C96.4428 61.246 96.2868 60.592 95.9748 60.196C95.6748 59.8 95.2128 59.602 94.5888 59.602C93.7368 59.602 93.0828 59.902 92.6268 60.502V67H90.6108V58.072H92.2848L92.4108 58.864C93.2028 58.228 94.0968 57.91 95.0928 57.91C96.3168 57.91 97.2108 58.384 97.7748 59.332C98.0868 58.876 98.4948 58.528 98.9988 58.288C99.5148 58.036 100.109 57.91 100.781 57.91ZM106.308 54.4H108.324V56.47H106.308V54.4ZM106.308 58.072H108.324V67H106.308V58.072ZM114.921 57.91C116.085 57.91 116.955 58.276 117.531 59.008C118.107 59.74 118.395 60.748 118.395 62.032V67H116.397V62.158C116.397 61.27 116.241 60.622 115.929 60.214C115.629 59.806 115.125 59.602 114.417 59.602C113.577 59.602 112.929 59.896 112.473 60.484V67H110.457V58.072H112.239L112.311 58.81C113.079 58.21 113.949 57.91 114.921 57.91ZM124.743 67.18C123.711 67.18 122.829 66.97 122.097 66.55C121.377 66.13 120.831 65.566 120.459 64.858C120.087 64.138 119.901 63.34 119.901 62.464C119.901 61.624 120.069 60.862 120.405 60.178C120.753 59.482 121.257 58.93 121.917 58.522C122.589 58.114 123.375 57.91 124.275 57.91C125.067 57.91 125.751 58.078 126.327 58.414C126.915 58.738 127.359 59.188 127.659 59.764C127.971 60.34 128.127 61 128.127 61.744C128.127 62.128 128.085 62.494 128.001 62.842H121.989C122.097 63.766 122.415 64.438 122.943 64.858C123.483 65.278 124.149 65.488 124.941 65.488C125.913 65.488 126.795 65.266 127.587 64.822L127.731 66.496C126.819 66.952 125.823 67.18 124.743 67.18ZM126.075 61.474C126.075 60.946 125.925 60.502 125.625 60.142C125.325 59.782 124.869 59.602 124.257 59.602C123.093 59.602 122.361 60.226 122.061 61.474H126.075ZM136.448 66.478L132.722 58.072H134.954L137.42 64.138L139.814 58.072H142.064L136.502 71.356H134.432L136.448 66.478ZM146.99 67.18C146.066 67.18 145.262 66.976 144.578 66.568C143.894 66.148 143.366 65.584 142.994 64.876C142.634 64.168 142.454 63.388 142.454 62.536C142.454 61.684 142.634 60.904 142.994 60.196C143.366 59.488 143.894 58.93 144.578 58.522C145.262 58.102 146.066 57.892 146.99 57.892C147.926 57.892 148.736 58.102 149.42 58.522C150.104 58.93 150.626 59.488 150.986 60.196C151.346 60.904 151.526 61.684 151.526 62.536C151.526 63.388 151.346 64.168 150.986 64.876C150.626 65.584 150.104 66.148 149.42 66.568C148.736 66.976 147.926 67.18 146.99 67.18ZM146.99 65.488C147.77 65.488 148.376 65.224 148.808 64.696C149.252 64.168 149.474 63.448 149.474 62.536C149.474 61.636 149.252 60.922 148.808 60.394C148.376 59.854 147.77 59.584 146.99 59.584C146.21 59.584 145.604 59.854 145.172 60.394C144.74 60.922 144.524 61.636 144.524 62.536C144.524 63.448 144.74 64.168 145.172 64.696C145.604 65.224 146.21 65.488 146.99 65.488ZM160.768 58.072V67H158.914L158.824 66.316C158.56 66.58 158.236 66.79 157.852 66.946C157.48 67.102 157.084 67.18 156.664 67.18C155.428 67.18 154.516 66.82 153.928 66.1C153.34 65.38 153.046 64.348 153.046 63.004V58.072H155.062V62.842C155.062 63.73 155.206 64.39 155.494 64.822C155.794 65.254 156.274 65.47 156.934 65.47C157.714 65.47 158.32 65.188 158.752 64.624V58.072H160.768ZM162.892 58.072H164.71L164.818 59.206C165.142 58.81 165.514 58.492 165.934 58.252C166.354 58.012 166.792 57.892 167.248 57.892C167.368 57.892 167.5 57.904 167.644 57.928L167.482 59.98C167.29 59.92 167.062 59.89 166.798 59.89C166.402 59.89 166.03 59.986 165.682 60.178C165.334 60.358 165.088 60.574 164.944 60.826V67H162.892V58.072ZM173.365 59.692H171.979L172.195 58.072H173.365V56.092C173.365 55.288 173.593 54.658 174.049 54.202C174.505 53.734 175.153 53.5 175.993 53.5C176.533 53.5 177.013 53.56 177.433 53.68L177.217 55.336C176.965 55.252 176.707 55.21 176.443 55.21C175.723 55.21 175.363 55.6 175.363 56.38V58.072H177.487V59.692H175.363V67H173.365V59.692ZM182.726 67.18C181.802 67.18 180.998 66.976 180.314 66.568C179.63 66.148 179.102 65.584 178.73 64.876C178.37 64.168 178.19 63.388 178.19 62.536C178.19 61.684 178.37 60.904 178.73 60.196C179.102 59.488 179.63 58.93 180.314 58.522C180.998 58.102 181.802 57.892 182.726 57.892C183.662 57.892 184.472 58.102 185.156 58.522C185.84 58.93 186.362 59.488 186.722 60.196C187.082 60.904 187.262 61.684 187.262 62.536C187.262 63.388 187.082 64.168 186.722 64.876C186.362 65.584 185.84 66.148 185.156 66.568C184.472 66.976 183.662 67.18 182.726 67.18ZM182.726 65.488C183.506 65.488 184.112 65.224 184.544 64.696C184.988 64.168 185.21 63.448 185.21 62.536C185.21 61.636 184.988 60.922 184.544 60.394C184.112 59.854 183.506 59.584 182.726 59.584C181.946 59.584 181.34 59.854 180.908 60.394C180.476 60.922 180.26 61.636 180.26 62.536C180.26 63.448 180.476 64.168 180.908 64.696C181.34 65.224 181.946 65.488 182.726 65.488ZM188.873 58.072H190.691L190.799 59.206C191.123 58.81 191.495 58.492 191.915 58.252C192.335 58.012 192.773 57.892 193.229 57.892C193.349 57.892 193.481 57.904 193.625 57.928L193.463 59.98C193.271 59.92 193.043 59.89 192.779 59.89C192.383 59.89 192.011 59.986 191.663 60.178C191.315 60.358 191.069 60.574 190.925 60.826V67H188.873V58.072ZM204.896 57.91C206.072 57.91 206.948 58.258 207.524 58.954C208.1 59.638 208.388 60.628 208.388 61.924V67H206.372V62.032C206.372 61.192 206.228 60.58 205.94 60.196C205.664 59.8 205.202 59.602 204.554 59.602C203.846 59.602 203.336 59.818 203.024 60.25C202.712 60.682 202.556 61.252 202.556 61.96V67H200.558V62.158C200.558 61.246 200.402 60.592 200.09 60.196C199.79 59.8 199.328 59.602 198.704 59.602C197.852 59.602 197.198 59.902 196.742 60.502V67H194.726V58.072H196.4L196.526 58.864C197.318 58.228 198.212 57.91 199.208 57.91C200.432 57.91 201.326 58.384 201.89 59.332C202.202 58.876 202.61 58.528 203.114 58.288C203.63 58.036 204.224 57.91 204.896 57.91ZM213.602 58.072H215.672L217.274 64.624L219.038 58.27H220.838L222.584 64.624L224.204 58.072H226.274L223.646 67H221.792L219.938 60.898L218.084 67H216.23L213.602 58.072ZM227.527 54.4H229.543V56.47H227.527V54.4ZM227.527 58.072H229.543V67H227.527V58.072ZM234.645 67.18C233.865 67.18 233.271 66.958 232.863 66.514C232.467 66.07 232.269 65.536 232.269 64.912V59.692H230.919L231.099 58.072H232.269V56.02L234.285 55.804V58.072H236.391V59.692H234.285V63.976C234.285 64.504 234.315 64.87 234.375 65.074C234.435 65.266 234.561 65.392 234.753 65.452C234.957 65.512 235.317 65.542 235.833 65.542H236.373L236.193 67.18H234.645ZM242.238 57.91C243.366 57.91 244.212 58.282 244.776 59.026C245.352 59.758 245.64 60.76 245.64 62.032V67H243.624V62.212C243.624 61.312 243.474 60.652 243.174 60.232C242.874 59.812 242.394 59.602 241.734 59.602C240.942 59.602 240.3 59.908 239.808 60.52V67H237.792V53.5H239.808V58.756C240.168 58.48 240.54 58.27 240.924 58.126C241.308 57.982 241.746 57.91 242.238 57.91ZM253.694 67.18C252.926 67.18 252.29 66.94 251.786 66.46C251.294 65.968 251.048 65.326 251.048 64.534C251.048 63.754 251.324 63.13 251.876 62.662C252.428 62.194 253.088 61.864 253.856 61.672C254.636 61.468 255.41 61.354 256.178 61.33C256.166 60.706 256.028 60.274 255.764 60.034C255.5 59.782 255.062 59.656 254.45 59.656C254.066 59.656 253.682 59.716 253.298 59.836C252.926 59.944 252.506 60.124 252.038 60.376L251.822 58.738C252.83 58.186 253.892 57.91 255.008 57.91C256.088 57.91 256.892 58.21 257.42 58.81C257.948 59.398 258.212 60.376 258.212 61.744V63.958C258.212 64.426 258.23 64.768 258.266 64.984C258.314 65.188 258.392 65.332 258.5 65.416C258.62 65.5 258.812 65.542 259.076 65.542H259.328L259.094 67.18H258.536C257.96 67.18 257.51 67.084 257.186 66.892C256.874 66.7 256.622 66.418 256.43 66.046C256.118 66.394 255.722 66.67 255.242 66.874C254.762 67.078 254.246 67.18 253.694 67.18ZM254.414 65.614C254.714 65.614 255.026 65.542 255.35 65.398C255.686 65.242 255.968 65.032 256.196 64.768V62.698C255.272 62.734 254.528 62.896 253.964 63.184C253.412 63.472 253.136 63.892 253.136 64.444C253.136 65.224 253.562 65.614 254.414 65.614ZM260.556 58.072H262.374L262.482 59.206C262.806 58.81 263.178 58.492 263.598 58.252C264.018 58.012 264.456 57.892 264.912 57.892C265.032 57.892 265.164 57.904 265.308 57.928L265.146 59.98C264.954 59.92 264.726 59.89 264.462 59.89C264.066 59.89 263.694 59.986 263.346 60.178C262.998 60.358 262.752 60.574 262.608 60.826V67H260.556V58.072ZM269.38 67.18C268.6 67.18 268.006 66.958 267.598 66.514C267.202 66.07 267.004 65.536 267.004 64.912V59.692H265.654L265.834 58.072H267.004V56.02L269.02 55.804V58.072H271.126V59.692H269.02V63.976C269.02 64.504 269.05 64.87 269.11 65.074C269.17 65.266 269.296 65.392 269.488 65.452C269.692 65.512 270.052 65.542 270.568 65.542H271.108L270.928 67.18H269.38ZM272.544 54.4H274.56V56.47H272.544V54.4ZM272.544 58.072H274.56V67H272.544V58.072ZM277.269 59.692H275.883L276.099 58.072H277.269V56.092C277.269 55.288 277.497 54.658 277.953 54.202C278.409 53.734 279.057 53.5 279.897 53.5C280.437 53.5 280.917 53.56 281.337 53.68L281.121 55.336C280.869 55.252 280.611 55.21 280.347 55.21C279.627 55.21 279.267 55.6 279.267 56.38V58.072H281.391V59.692H279.267V67H277.269V59.692ZM282.757 54.4H284.773V56.47H282.757V54.4ZM282.757 58.072H284.773V67H282.757V58.072ZM291.046 67.18C290.062 67.18 289.216 66.976 288.508 66.568C287.812 66.16 287.284 65.608 286.924 64.912C286.564 64.216 286.384 63.436 286.384 62.572C286.384 61.684 286.558 60.886 286.906 60.178C287.266 59.47 287.8 58.912 288.508 58.504C289.216 58.096 290.092 57.892 291.136 57.892C292.036 57.892 292.84 58.078 293.548 58.45L293.332 60.106C292.636 59.77 291.946 59.602 291.262 59.602C290.362 59.602 289.666 59.866 289.174 60.394C288.682 60.922 288.436 61.636 288.436 62.536C288.436 63.424 288.682 64.138 289.174 64.678C289.666 65.218 290.35 65.488 291.226 65.488C291.97 65.488 292.678 65.296 293.35 64.912L293.566 66.586C293.254 66.766 292.876 66.91 292.432 67.018C291.988 67.126 291.526 67.18 291.046 67.18ZM295.097 54.4H297.113V56.47H295.097V54.4ZM295.097 58.072H297.113V67H295.097V58.072ZM301.226 67.18C300.458 67.18 299.822 66.94 299.318 66.46C298.826 65.968 298.58 65.326 298.58 64.534C298.58 63.754 298.856 63.13 299.408 62.662C299.96 62.194 300.62 61.864 301.388 61.672C302.168 61.468 302.942 61.354 303.71 61.33C303.698 60.706 303.56 60.274 303.296 60.034C303.032 59.782 302.594 59.656 301.982 59.656C301.598 59.656 301.214 59.716 300.83 59.836C300.458 59.944 300.038 60.124 299.57 60.376L299.354 58.738C300.362 58.186 301.424 57.91 302.54 57.91C303.62 57.91 304.424 58.21 304.952 58.81C305.48 59.398 305.744 60.376 305.744 61.744V63.958C305.744 64.426 305.762 64.768 305.798 64.984C305.846 65.188 305.924 65.332 306.032 65.416C306.152 65.5 306.344 65.542 306.608 65.542H306.86L306.626 67.18H306.068C305.492 67.18 305.042 67.084 304.718 66.892C304.406 66.7 304.154 66.418 303.962 66.046C303.65 66.394 303.254 66.67 302.774 66.874C302.294 67.078 301.778 67.18 301.226 67.18ZM301.946 65.614C302.246 65.614 302.558 65.542 302.882 65.398C303.218 65.242 303.5 65.032 303.728 64.768V62.698C302.804 62.734 302.06 62.896 301.496 63.184C300.944 63.472 300.668 63.892 300.668 64.444C300.668 65.224 301.094 65.614 301.946 65.614ZM310.373 67.18C309.605 67.18 309.029 66.97 308.645 66.55C308.273 66.118 308.087 65.572 308.087 64.912V53.5H310.085V63.976C310.085 64.48 310.115 64.84 310.175 65.056C310.235 65.26 310.343 65.392 310.499 65.452C310.655 65.512 310.919 65.542 311.291 65.542L311.093 67.18H310.373ZM316.683 54.4H318.699V56.47H316.683V54.4ZM316.683 58.072H318.699V67H316.683V58.072ZM325.296 57.91C326.46 57.91 327.33 58.276 327.906 59.008C328.482 59.74 328.77 60.748 328.77 62.032V67H326.772V62.158C326.772 61.27 326.616 60.622 326.304 60.214C326.004 59.806 325.5 59.602 324.792 59.602C323.952 59.602 323.304 59.896 322.848 60.484V67H320.832V58.072H322.614L322.686 58.81C323.454 58.21 324.324 57.91 325.296 57.91ZM333.663 67.18C332.883 67.18 332.289 66.958 331.881 66.514C331.485 66.07 331.287 65.536 331.287 64.912V59.692H329.937L330.117 58.072H331.287V56.02L333.303 55.804V58.072H335.409V59.692H333.303V63.976C333.303 64.504 333.333 64.87 333.393 65.074C333.453 65.266 333.579 65.392 333.771 65.452C333.975 65.512 334.335 65.542 334.851 65.542H335.391L335.211 67.18H333.663ZM341.112 67.18C340.08 67.18 339.198 66.97 338.466 66.55C337.746 66.13 337.2 65.566 336.828 64.858C336.456 64.138 336.27 63.34 336.27 62.464C336.27 61.624 336.438 60.862 336.774 60.178C337.122 59.482 337.626 58.93 338.286 58.522C338.958 58.114 339.744 57.91 340.644 57.91C341.436 57.91 342.12 58.078 342.696 58.414C343.284 58.738 343.728 59.188 344.028 59.764C344.34 60.34 344.496 61 344.496 61.744C344.496 62.128 344.454 62.494 344.37 62.842H338.358C338.466 63.766 338.784 64.438 339.312 64.858C339.852 65.278 340.518 65.488 341.31 65.488C342.282 65.488 343.164 65.266 343.956 64.822L344.1 66.496C343.188 66.952 342.192 67.18 341.112 67.18ZM342.444 61.474C342.444 60.946 342.294 60.502 341.994 60.142C341.694 59.782 341.238 59.602 340.626 59.602C339.462 59.602 338.73 60.226 338.43 61.474H342.444ZM348.342 67.18C347.574 67.18 346.998 66.97 346.614 66.55C346.242 66.118 346.056 65.572 346.056 64.912V53.5H348.054V63.976C348.054 64.48 348.084 64.84 348.144 65.056C348.204 65.26 348.312 65.392 348.468 65.452C348.624 65.512 348.888 65.542 349.26 65.542L349.062 67.18H348.342ZM352.895 67.18C352.127 67.18 351.551 66.97 351.167 66.55C350.795 66.118 350.609 65.572 350.609 64.912V53.5H352.607V63.976C352.607 64.48 352.637 64.84 352.697 65.056C352.757 65.26 352.865 65.392 353.021 65.452C353.177 65.512 353.441 65.542 353.813 65.542L353.615 67.18H352.895ZM355.162 54.4H357.178V56.47H355.162V54.4ZM355.162 58.072H357.178V67H355.162V58.072ZM362.874 71.518C361.614 71.518 360.6 71.29 359.832 70.834C359.076 70.378 358.698 69.742 358.698 68.926C358.698 68.038 359.19 67.336 360.174 66.82C359.634 66.508 359.364 66.106 359.364 65.614C359.364 65.038 359.682 64.612 360.318 64.336C359.85 64.024 359.49 63.616 359.238 63.112C358.998 62.608 358.878 62.044 358.878 61.42C358.878 60.76 359.022 60.166 359.31 59.638C359.598 59.098 360.012 58.672 360.552 58.36C361.104 58.048 361.758 57.892 362.514 57.892C363.33 57.892 364.032 58.096 364.62 58.504C364.848 58.372 365.136 58.264 365.484 58.18C365.844 58.096 366.228 58.054 366.636 58.054H367.05L366.888 59.332H366.222C365.994 59.332 365.766 59.356 365.538 59.404C365.958 59.968 366.168 60.64 366.168 61.42C366.168 62.08 366.024 62.68 365.736 63.22C365.448 63.76 365.028 64.192 364.476 64.516C363.924 64.828 363.27 64.984 362.514 64.984C362.178 64.984 361.836 64.936 361.488 64.84C361.296 64.912 361.2 65.032 361.2 65.2C361.2 65.344 361.29 65.464 361.47 65.56C361.662 65.656 361.956 65.728 362.352 65.776L364.188 66.046C366.228 66.334 367.248 67.192 367.248 68.62C367.248 69.532 366.858 70.24 366.078 70.744C365.31 71.26 364.242 71.518 362.874 71.518ZM362.514 63.454C363.09 63.454 363.534 63.274 363.846 62.914C364.158 62.542 364.314 62.044 364.314 61.42C364.314 60.796 364.158 60.304 363.846 59.944C363.534 59.584 363.09 59.404 362.514 59.404C361.938 59.404 361.494 59.59 361.182 59.962C360.87 60.322 360.714 60.808 360.714 61.42C360.714 62.044 360.87 62.542 361.182 62.914C361.494 63.274 361.938 63.454 362.514 63.454ZM362.982 69.916C364.59 69.916 365.394 69.526 365.394 68.746C365.394 68.422 365.256 68.17 364.98 67.99C364.716 67.822 364.29 67.69 363.702 67.594L361.542 67.252C361.206 67.384 360.936 67.558 360.732 67.774C360.54 68.002 360.444 68.266 360.444 68.566C360.444 69.022 360.666 69.358 361.11 69.574C361.554 69.802 362.178 69.916 362.982 69.916ZM372.559 67.18C371.527 67.18 370.645 66.97 369.913 66.55C369.193 66.13 368.647 65.566 368.275 64.858C367.903 64.138 367.717 63.34 367.717 62.464C367.717 61.624 367.885 60.862 368.221 60.178C368.569 59.482 369.073 58.93 369.733 58.522C370.405 58.114 371.191 57.91 372.091 57.91C372.883 57.91 373.567 58.078 374.143 58.414C374.731 58.738 375.175 59.188 375.475 59.764C375.787 60.34 375.943 61 375.943 61.744C375.943 62.128 375.901 62.494 375.817 62.842H369.805C369.913 63.766 370.231 64.438 370.759 64.858C371.299 65.278 371.965 65.488 372.757 65.488C373.729 65.488 374.611 65.266 375.403 64.822L375.547 66.496C374.635 66.952 373.639 67.18 372.559 67.18ZM373.891 61.474C373.891 60.946 373.741 60.502 373.441 60.142C373.141 59.782 372.685 59.602 372.073 59.602C370.909 59.602 370.177 60.226 369.877 61.474H373.891ZM381.967 57.91C383.131 57.91 384.001 58.276 384.577 59.008C385.153 59.74 385.441 60.748 385.441 62.032V67H383.443V62.158C383.443 61.27 383.287 60.622 382.975 60.214C382.675 59.806 382.171 59.602 381.463 59.602C380.623 59.602 379.975 59.896 379.519 60.484V67H377.503V58.072H379.285L379.357 58.81C380.125 58.21 380.995 57.91 381.967 57.91ZM391.628 67.18C390.644 67.18 389.798 66.976 389.09 66.568C388.394 66.16 387.866 65.608 387.506 64.912C387.146 64.216 386.966 63.436 386.966 62.572C386.966 61.684 387.14 60.886 387.488 60.178C387.848 59.47 388.382 58.912 389.09 58.504C389.798 58.096 390.674 57.892 391.718 57.892C392.618 57.892 393.422 58.078 394.13 58.45L393.914 60.106C393.218 59.77 392.528 59.602 391.844 59.602C390.944 59.602 390.248 59.866 389.756 60.394C389.264 60.922 389.018 61.636 389.018 62.536C389.018 63.424 389.264 64.138 389.756 64.678C390.248 65.218 390.932 65.488 391.808 65.488C392.552 65.488 393.26 65.296 393.932 64.912L394.148 66.586C393.836 66.766 393.458 66.91 393.014 67.018C392.57 67.126 392.108 67.18 391.628 67.18ZM399.893 67.18C398.861 67.18 397.979 66.97 397.247 66.55C396.527 66.13 395.981 65.566 395.609 64.858C395.237 64.138 395.051 63.34 395.051 62.464C395.051 61.624 395.219 60.862 395.555 60.178C395.903 59.482 396.407 58.93 397.067 58.522C397.739 58.114 398.525 57.91 399.425 57.91C400.217 57.91 400.901 58.078 401.477 58.414C402.065 58.738 402.509 59.188 402.809 59.764C403.121 60.34 403.277 61 403.277 61.744C403.277 62.128 403.235 62.494 403.151 62.842H397.139C397.247 63.766 397.565 64.438 398.093 64.858C398.633 65.278 399.299 65.488 400.091 65.488C401.063 65.488 401.945 65.266 402.737 64.822L402.881 66.496C401.969 66.952 400.973 67.18 399.893 67.18ZM401.225 61.474C401.225 60.946 401.075 60.502 400.775 60.142C400.475 59.782 400.019 59.602 399.407 59.602C398.243 59.602 397.511 60.226 397.211 61.474H401.225ZM410.86 67.18C410.092 67.18 409.456 66.94 408.952 66.46C408.46 65.968 408.214 65.326 408.214 64.534C408.214 63.754 408.49 63.13 409.042 62.662C409.594 62.194 410.254 61.864 411.022 61.672C411.802 61.468 412.576 61.354 413.344 61.33C413.332 60.706 413.194 60.274 412.93 60.034C412.666 59.782 412.228 59.656 411.616 59.656C411.232 59.656 410.848 59.716 410.464 59.836C410.092 59.944 409.672 60.124 409.204 60.376L408.988 58.738C409.996 58.186 411.058 57.91 412.174 57.91C413.254 57.91 414.058 58.21 414.586 58.81C415.114 59.398 415.378 60.376 415.378 61.744V63.958C415.378 64.426 415.396 64.768 415.432 64.984C415.48 65.188 415.558 65.332 415.666 65.416C415.786 65.5 415.978 65.542 416.242 65.542H416.494L416.26 67.18H415.702C415.126 67.18 414.676 67.084 414.352 66.892C414.04 66.7 413.788 66.418 413.596 66.046C413.284 66.394 412.888 66.67 412.408 66.874C411.928 67.078 411.412 67.18 410.86 67.18ZM411.58 65.614C411.88 65.614 412.192 65.542 412.516 65.398C412.852 65.242 413.134 65.032 413.362 64.768V62.698C412.438 62.734 411.694 62.896 411.13 63.184C410.578 63.472 410.302 63.892 410.302 64.444C410.302 65.224 410.728 65.614 411.58 65.614ZM422.186 57.91C423.35 57.91 424.22 58.276 424.796 59.008C425.372 59.74 425.66 60.748 425.66 62.032V67H423.662V62.158C423.662 61.27 423.506 60.622 423.194 60.214C422.894 59.806 422.39 59.602 421.682 59.602C420.842 59.602 420.194 59.896 419.738 60.484V67H417.722V58.072H419.504L419.576 58.81C420.344 58.21 421.214 57.91 422.186 57.91ZM435.771 53.5V67H433.917L433.827 66.244C433.143 66.868 432.297 67.18 431.289 67.18C430.461 67.18 429.735 66.976 429.111 66.568C428.487 66.148 428.007 65.59 427.671 64.894C427.335 64.186 427.167 63.406 427.167 62.554C427.167 61.714 427.329 60.94 427.653 60.232C427.989 59.524 428.463 58.96 429.075 58.54C429.699 58.12 430.437 57.91 431.289 57.91C432.261 57.91 433.083 58.198 433.755 58.774V53.5H435.771ZM431.595 65.488C432.303 65.488 432.861 65.23 433.269 64.714C433.689 64.198 433.899 63.478 433.899 62.554C433.899 61.642 433.689 60.922 433.269 60.394C432.849 59.866 432.291 59.602 431.595 59.602C430.863 59.602 430.287 59.878 429.867 60.43C429.447 60.97 429.237 61.678 429.237 62.554C429.237 63.418 429.447 64.126 429.867 64.678C430.287 65.218 430.863 65.488 431.595 65.488ZM445.491 71.518C444.231 71.518 443.217 71.29 442.449 70.834C441.693 70.378 441.315 69.742 441.315 68.926C441.315 68.038 441.807 67.336 442.791 66.82C442.251 66.508 441.981 66.106 441.981 65.614C441.981 65.038 442.299 64.612 442.935 64.336C442.467 64.024 442.107 63.616 441.855 63.112C441.615 62.608 441.495 62.044 441.495 61.42C441.495 60.76 441.639 60.166 441.927 59.638C442.215 59.098 442.629 58.672 443.169 58.36C443.721 58.048 444.375 57.892 445.131 57.892C445.947 57.892 446.649 58.096 447.237 58.504C447.465 58.372 447.753 58.264 448.101 58.18C448.461 58.096 448.845 58.054 449.253 58.054H449.667L449.505 59.332H448.839C448.611 59.332 448.383 59.356 448.155 59.404C448.575 59.968 448.785 60.64 448.785 61.42C448.785 62.08 448.641 62.68 448.353 63.22C448.065 63.76 447.645 64.192 447.093 64.516C446.541 64.828 445.887 64.984 445.131 64.984C444.795 64.984 444.453 64.936 444.105 64.84C443.913 64.912 443.817 65.032 443.817 65.2C443.817 65.344 443.907 65.464 444.087 65.56C444.279 65.656 444.573 65.728 444.969 65.776L446.805 66.046C448.845 66.334 449.865 67.192 449.865 68.62C449.865 69.532 449.475 70.24 448.695 70.744C447.927 71.26 446.859 71.518 445.491 71.518ZM445.131 63.454C445.707 63.454 446.151 63.274 446.463 62.914C446.775 62.542 446.931 62.044 446.931 61.42C446.931 60.796 446.775 60.304 446.463 59.944C446.151 59.584 445.707 59.404 445.131 59.404C444.555 59.404 444.111 59.59 443.799 59.962C443.487 60.322 443.331 60.808 443.331 61.42C443.331 62.044 443.487 62.542 443.799 62.914C444.111 63.274 444.555 63.454 445.131 63.454ZM445.599 69.916C447.207 69.916 448.011 69.526 448.011 68.746C448.011 68.422 447.873 68.17 447.597 67.99C447.333 67.822 446.907 67.69 446.319 67.594L444.159 67.252C443.823 67.384 443.553 67.558 443.349 67.774C443.157 68.002 443.061 68.266 443.061 68.566C443.061 69.022 443.283 69.358 443.727 69.574C444.171 69.802 444.795 69.916 445.599 69.916ZM450.927 54.4H452.943V56.47H450.927V54.4ZM450.927 58.072H452.943V67H450.927V58.072ZM454.104 58.072H456.156L458.46 64.588L460.764 58.072H462.816L459.414 67H457.524L454.104 58.072ZM468.132 67.18C467.1 67.18 466.218 66.97 465.486 66.55C464.766 66.13 464.22 65.566 463.848 64.858C463.476 64.138 463.29 63.34 463.29 62.464C463.29 61.624 463.458 60.862 463.794 60.178C464.142 59.482 464.646 58.93 465.306 58.522C465.978 58.114 466.764 57.91 467.664 57.91C468.456 57.91 469.14 58.078 469.716 58.414C470.304 58.738 470.748 59.188 471.048 59.764C471.36 60.34 471.516 61 471.516 61.744C471.516 62.128 471.474 62.494 471.39 62.842H465.378C465.486 63.766 465.804 64.438 466.332 64.858C466.872 65.278 467.538 65.488 468.33 65.488C469.302 65.488 470.184 65.266 470.976 64.822L471.12 66.496C470.208 66.952 469.212 67.18 468.132 67.18ZM469.464 61.474C469.464 60.946 469.314 60.502 469.014 60.142C468.714 59.782 468.258 59.602 467.646 59.602C466.482 59.602 465.75 60.226 465.45 61.474H469.464ZM479.837 66.478L476.111 58.072H478.343L480.809 64.138L483.203 58.072H485.453L479.891 71.356H477.821L479.837 66.478ZM490.378 67.18C489.454 67.18 488.65 66.976 487.966 66.568C487.282 66.148 486.754 65.584 486.382 64.876C486.022 64.168 485.842 63.388 485.842 62.536C485.842 61.684 486.022 60.904 486.382 60.196C486.754 59.488 487.282 58.93 487.966 58.522C488.65 58.102 489.454 57.892 490.378 57.892C491.314 57.892 492.124 58.102 492.808 58.522C493.492 58.93 494.014 59.488 494.374 60.196C494.734 60.904 494.914 61.684 494.914 62.536C494.914 63.388 494.734 64.168 494.374 64.876C494.014 65.584 493.492 66.148 492.808 66.568C492.124 66.976 491.314 67.18 490.378 67.18ZM490.378 65.488C491.158 65.488 491.764 65.224 492.196 64.696C492.64 64.168 492.862 63.448 492.862 62.536C492.862 61.636 492.64 60.922 492.196 60.394C491.764 59.854 491.158 59.584 490.378 59.584C489.598 59.584 488.992 59.854 488.56 60.394C488.128 60.922 487.912 61.636 487.912 62.536C487.912 63.448 488.128 64.168 488.56 64.696C488.992 65.224 489.598 65.488 490.378 65.488ZM504.157 58.072V67H502.303L502.213 66.316C501.949 66.58 501.625 66.79 501.241 66.946C500.869 67.102 500.473 67.18 500.053 67.18C498.817 67.18 497.905 66.82 497.317 66.1C496.729 65.38 496.435 64.348 496.435 63.004V58.072H498.451V62.842C498.451 63.73 498.595 64.39 498.883 64.822C499.183 65.254 499.663 65.47 500.323 65.47C501.103 65.47 501.709 65.188 502.141 64.624V58.072H504.157ZM512.304 67.18C511.536 67.18 510.9 66.94 510.396 66.46C509.904 65.968 509.658 65.326 509.658 64.534C509.658 63.754 509.934 63.13 510.486 62.662C511.038 62.194 511.698 61.864 512.466 61.672C513.246 61.468 514.02 61.354 514.788 61.33C514.776 60.706 514.638 60.274 514.374 60.034C514.11 59.782 513.672 59.656 513.06 59.656C512.676 59.656 512.292 59.716 511.908 59.836C511.536 59.944 511.116 60.124 510.648 60.376L510.432 58.738C511.44 58.186 512.502 57.91 513.618 57.91C514.698 57.91 515.502 58.21 516.03 58.81C516.558 59.398 516.822 60.376 516.822 61.744V63.958C516.822 64.426 516.84 64.768 516.876 64.984C516.924 65.188 517.002 65.332 517.11 65.416C517.23 65.5 517.422 65.542 517.686 65.542H517.938L517.704 67.18H517.146C516.57 67.18 516.12 67.084 515.796 66.892C515.484 66.7 515.232 66.418 515.04 66.046C514.728 66.394 514.332 66.67 513.852 66.874C513.372 67.078 512.856 67.18 512.304 67.18ZM513.024 65.614C513.324 65.614 513.636 65.542 513.96 65.398C514.296 65.242 514.578 65.032 514.806 64.768V62.698C513.882 62.734 513.138 62.896 512.574 63.184C512.022 63.472 511.746 63.892 511.746 64.444C511.746 65.224 512.172 65.614 513.024 65.614ZM42.126 75.5V89H40.272L40.182 88.244C39.498 88.868 38.652 89.18 37.644 89.18C36.816 89.18 36.09 88.976 35.466 88.568C34.842 88.148 34.362 87.59 34.026 86.894C33.69 86.186 33.522 85.406 33.522 84.554C33.522 83.714 33.684 82.94 34.008 82.232C34.344 81.524 34.818 80.96 35.43 80.54C36.054 80.12 36.792 79.91 37.644 79.91C38.616 79.91 39.438 80.198 40.11 80.774V75.5H42.126ZM37.95 87.488C38.658 87.488 39.216 87.23 39.624 86.714C40.044 86.198 40.254 85.478 40.254 84.554C40.254 83.642 40.044 82.922 39.624 82.394C39.204 81.866 38.646 81.602 37.95 81.602C37.218 81.602 36.642 81.878 36.222 82.43C35.802 82.97 35.592 83.678 35.592 84.554C35.592 85.418 35.802 86.126 36.222 86.678C36.642 87.218 37.218 87.488 37.95 87.488ZM48.5417 89.18C47.5097 89.18 46.6277 88.97 45.8957 88.55C45.1757 88.13 44.6297 87.566 44.2577 86.858C43.8857 86.138 43.6997 85.34 43.6997 84.464C43.6997 83.624 43.8677 82.862 44.2037 82.178C44.5517 81.482 45.0557 80.93 45.7157 80.522C46.3877 80.114 47.1737 79.91 48.0737 79.91C48.8657 79.91 49.5497 80.078 50.1257 80.414C50.7137 80.738 51.1577 81.188 51.4577 81.764C51.7697 82.34 51.9257 83 51.9257 83.744C51.9257 84.128 51.8837 84.494 51.7997 84.842H45.7877C45.8957 85.766 46.2137 86.438 46.7417 86.858C47.2817 87.278 47.9477 87.488 48.7397 87.488C49.7117 87.488 50.5937 87.266 51.3857 86.822L51.5297 88.496C50.6177 88.952 49.6217 89.18 48.5417 89.18ZM49.8737 83.474C49.8737 82.946 49.7237 82.502 49.4237 82.142C49.1237 81.782 48.6677 81.602 48.0557 81.602C46.8917 81.602 46.1597 82.226 45.8597 83.474H49.8737ZM56.4558 89.18C55.6758 89.18 55.0818 88.958 54.6738 88.514C54.2778 88.07 54.0798 87.536 54.0798 86.912V81.692H52.7298L52.9098 80.072H54.0798V78.02L56.0958 77.804V80.072H58.2018V81.692H56.0958V85.976C56.0958 86.504 56.1258 86.87 56.1858 87.074C56.2458 87.266 56.3718 87.392 56.5638 87.452C56.7678 87.512 57.1278 87.542 57.6438 87.542H58.1838L58.0038 89.18H56.4558ZM61.6006 89.18C60.8326 89.18 60.1966 88.94 59.6926 88.46C59.2006 87.968 58.9546 87.326 58.9546 86.534C58.9546 85.754 59.2306 85.13 59.7826 84.662C60.3346 84.194 60.9946 83.864 61.7626 83.672C62.5426 83.468 63.3166 83.354 64.0846 83.33C64.0726 82.706 63.9346 82.274 63.6706 82.034C63.4066 81.782 62.9686 81.656 62.3566 81.656C61.9726 81.656 61.5886 81.716 61.2046 81.836C60.8326 81.944 60.4126 82.124 59.9446 82.376L59.7286 80.738C60.7366 80.186 61.7986 79.91 62.9146 79.91C63.9946 79.91 64.7986 80.21 65.3266 80.81C65.8546 81.398 66.1186 82.376 66.1186 83.744V85.958C66.1186 86.426 66.1366 86.768 66.1726 86.984C66.2206 87.188 66.2986 87.332 66.4066 87.416C66.5266 87.5 66.7186 87.542 66.9826 87.542H67.2346L67.0006 89.18H66.4426C65.8666 89.18 65.4166 89.084 65.0926 88.892C64.7806 88.7 64.5286 88.418 64.3366 88.046C64.0246 88.394 63.6286 88.67 63.1486 88.874C62.6686 89.078 62.1526 89.18 61.6006 89.18ZM62.3206 87.614C62.6206 87.614 62.9326 87.542 63.2566 87.398C63.5926 87.242 63.8746 87.032 64.1026 86.768V84.698C63.1786 84.734 62.4346 84.896 61.8706 85.184C61.3186 85.472 61.0426 85.892 61.0426 86.444C61.0426 87.224 61.4686 87.614 62.3206 87.614ZM68.4624 76.4H70.4784V78.47H68.4624V76.4ZM68.4624 80.072H70.4784V89H68.4624V80.072ZM74.8968 89.18C74.1288 89.18 73.5528 88.97 73.1688 88.55C72.7968 88.118 72.6108 87.572 72.6108 86.912V75.5H74.6088V85.976C74.6088 86.48 74.6388 86.84 74.6988 87.056C74.7588 87.26 74.8668 87.392 75.0228 87.452C75.1788 87.512 75.4428 87.542 75.8148 87.542L75.6168 89.18H74.8968ZM81.3777 89.18C80.3457 89.18 79.4637 88.97 78.7317 88.55C78.0117 88.13 77.4657 87.566 77.0937 86.858C76.7217 86.138 76.5357 85.34 76.5357 84.464C76.5357 83.624 76.7037 82.862 77.0397 82.178C77.3877 81.482 77.8917 80.93 78.5517 80.522C79.2237 80.114 80.0097 79.91 80.9097 79.91C81.7017 79.91 82.3857 80.078 82.9617 80.414C83.5497 80.738 83.9937 81.188 84.2937 81.764C84.6057 82.34 84.7617 83 84.7617 83.744C84.7617 84.128 84.7197 84.494 84.6357 84.842H78.6237C78.7317 85.766 79.0497 86.438 79.5777 86.858C80.1177 87.278 80.7837 87.488 81.5757 87.488C82.5477 87.488 83.4297 87.266 84.2217 86.822L84.3657 88.496C83.4537 88.952 82.4577 89.18 81.3777 89.18ZM82.7097 83.474C82.7097 82.946 82.5597 82.502 82.2597 82.142C81.9597 81.782 81.5037 81.602 80.8917 81.602C79.7277 81.602 78.9957 82.226 78.6957 83.474H82.7097ZM94.3858 75.5V89H92.5318L92.4418 88.244C91.7578 88.868 90.9118 89.18 89.9038 89.18C89.0758 89.18 88.3498 88.976 87.7258 88.568C87.1018 88.148 86.6218 87.59 86.2858 86.894C85.9498 86.186 85.7818 85.406 85.7818 84.554C85.7818 83.714 85.9438 82.94 86.2678 82.232C86.6038 81.524 87.0778 80.96 87.6898 80.54C88.3138 80.12 89.0518 79.91 89.9038 79.91C90.8758 79.91 91.6978 80.198 92.3698 80.774V75.5H94.3858ZM90.2098 87.488C90.9178 87.488 91.4758 87.23 91.8838 86.714C92.3038 86.198 92.5138 85.478 92.5138 84.554C92.5138 83.642 92.3038 82.922 91.8838 82.394C91.4638 81.866 90.9058 81.602 90.2098 81.602C89.4778 81.602 88.9018 81.878 88.4818 82.43C88.0618 82.97 87.8518 83.678 87.8518 84.554C87.8518 85.418 88.0618 86.126 88.4818 86.678C88.9018 87.218 89.4778 87.488 90.2098 87.488ZM100.542 80.072H102.36L102.468 81.206C102.792 80.81 103.164 80.492 103.584 80.252C104.004 80.012 104.442 79.892 104.898 79.892C105.018 79.892 105.15 79.904 105.294 79.928L105.132 81.98C104.94 81.92 104.712 81.89 104.448 81.89C104.052 81.89 103.68 81.986 103.332 82.178C102.984 82.358 102.738 82.574 102.594 82.826V89H100.542V80.072ZM110.522 89.18C109.49 89.18 108.608 88.97 107.876 88.55C107.156 88.13 106.61 87.566 106.238 86.858C105.866 86.138 105.68 85.34 105.68 84.464C105.68 83.624 105.848 82.862 106.184 82.178C106.532 81.482 107.036 80.93 107.696 80.522C108.368 80.114 109.154 79.91 110.054 79.91C110.846 79.91 111.53 80.078 112.106 80.414C112.694 80.738 113.138 81.188 113.438 81.764C113.75 82.34 113.906 83 113.906 83.744C113.906 84.128 113.864 84.494 113.78 84.842H107.768C107.876 85.766 108.194 86.438 108.722 86.858C109.262 87.278 109.928 87.488 110.72 87.488C111.692 87.488 112.574 87.266 113.366 86.822L113.51 88.496C112.598 88.952 111.602 89.18 110.522 89.18ZM111.854 83.474C111.854 82.946 111.704 82.502 111.404 82.142C111.104 81.782 110.648 81.602 110.036 81.602C108.872 81.602 108.14 82.226 107.84 83.474H111.854ZM120.092 79.91C120.92 79.91 121.634 80.114 122.234 80.522C122.834 80.93 123.29 81.488 123.602 82.196C123.914 82.892 124.07 83.672 124.07 84.536C124.07 85.4 123.914 86.186 123.602 86.894C123.302 87.602 122.852 88.16 122.252 88.568C121.652 88.976 120.932 89.18 120.092 89.18C119.516 89.18 119.018 89.108 118.598 88.964C118.19 88.82 117.818 88.592 117.482 88.28V93.356H115.466V80.072H117.068L117.284 81.026C117.668 80.666 118.082 80.39 118.526 80.198C118.982 80.006 119.504 79.91 120.092 79.91ZM119.75 87.488C120.458 87.488 121.01 87.224 121.406 86.696C121.802 86.168 122 85.448 122 84.536C122 83.636 121.802 82.922 121.406 82.394C121.01 81.866 120.458 81.602 119.75 81.602C118.994 81.602 118.406 81.86 117.986 82.376C117.578 82.892 117.374 83.612 117.374 84.536C117.374 85.472 117.578 86.198 117.986 86.714C118.406 87.23 118.994 87.488 119.75 87.488ZM129.675 89.18C128.751 89.18 127.947 88.976 127.263 88.568C126.579 88.148 126.051 87.584 125.679 86.876C125.319 86.168 125.139 85.388 125.139 84.536C125.139 83.684 125.319 82.904 125.679 82.196C126.051 81.488 126.579 80.93 127.263 80.522C127.947 80.102 128.751 79.892 129.675 79.892C130.611 79.892 131.421 80.102 132.105 80.522C132.789 80.93 133.311 81.488 133.671 82.196C134.031 82.904 134.211 83.684 134.211 84.536C134.211 85.388 134.031 86.168 133.671 86.876C133.311 87.584 132.789 88.148 132.105 88.568C131.421 88.976 130.611 89.18 129.675 89.18ZM129.675 87.488C130.455 87.488 131.061 87.224 131.493 86.696C131.937 86.168 132.159 85.448 132.159 84.536C132.159 83.636 131.937 82.922 131.493 82.394C131.061 81.854 130.455 81.584 129.675 81.584C128.895 81.584 128.289 81.854 127.857 82.394C127.425 82.922 127.209 83.636 127.209 84.536C127.209 85.448 127.425 86.168 127.857 86.696C128.289 87.224 128.895 87.488 129.675 87.488ZM135.822 80.072H137.64L137.748 81.206C138.072 80.81 138.444 80.492 138.864 80.252C139.284 80.012 139.722 79.892 140.178 79.892C140.298 79.892 140.43 79.904 140.574 79.928L140.412 81.98C140.22 81.92 139.992 81.89 139.728 81.89C139.332 81.89 138.96 81.986 138.612 82.178C138.264 82.358 138.018 82.574 137.874 82.826V89H135.822V80.072ZM144.645 89.18C143.865 89.18 143.271 88.958 142.863 88.514C142.467 88.07 142.269 87.536 142.269 86.912V81.692H140.919L141.099 80.072H142.269V78.02L144.285 77.804V80.072H146.391V81.692H144.285V85.976C144.285 86.504 144.315 86.87 144.375 87.074C144.435 87.266 144.561 87.392 144.753 87.452C144.957 87.512 145.317 87.542 145.833 87.542H146.373L146.193 89.18H144.645ZM155.849 89.18C154.925 89.18 154.121 88.976 153.437 88.568C152.753 88.148 152.225 87.584 151.853 86.876C151.493 86.168 151.313 85.388 151.313 84.536C151.313 83.684 151.493 82.904 151.853 82.196C152.225 81.488 152.753 80.93 153.437 80.522C154.121 80.102 154.925 79.892 155.849 79.892C156.785 79.892 157.595 80.102 158.279 80.522C158.963 80.93 159.485 81.488 159.845 82.196C160.205 82.904 160.385 83.684 160.385 84.536C160.385 85.388 160.205 86.168 159.845 86.876C159.485 87.584 158.963 88.148 158.279 88.568C157.595 88.976 156.785 89.18 155.849 89.18ZM155.849 87.488C156.629 87.488 157.235 87.224 157.667 86.696C158.111 86.168 158.333 85.448 158.333 84.536C158.333 83.636 158.111 82.922 157.667 82.394C157.235 81.854 156.629 81.584 155.849 81.584C155.069 81.584 154.463 81.854 154.031 82.394C153.599 82.922 153.383 83.636 153.383 84.536C153.383 85.448 153.599 86.168 154.031 86.696C154.463 87.224 155.069 87.488 155.849 87.488ZM162.466 81.692H161.08L161.296 80.072H162.466V78.092C162.466 77.288 162.694 76.658 163.15 76.202C163.606 75.734 164.254 75.5 165.094 75.5C165.634 75.5 166.114 75.56 166.534 75.68L166.318 77.336C166.066 77.252 165.808 77.21 165.544 77.21C164.824 77.21 164.464 77.6 164.464 78.38V80.072H166.588V81.692H164.464V89H162.466V81.692ZM174.716 88.478L170.99 80.072H173.222L175.688 86.138L178.082 80.072H180.332L174.77 93.356H172.7L174.716 88.478ZM185.257 89.18C184.333 89.18 183.529 88.976 182.845 88.568C182.161 88.148 181.633 87.584 181.261 86.876C180.901 86.168 180.721 85.388 180.721 84.536C180.721 83.684 180.901 82.904 181.261 82.196C181.633 81.488 182.161 80.93 182.845 80.522C183.529 80.102 184.333 79.892 185.257 79.892C186.193 79.892 187.003 80.102 187.687 80.522C188.371 80.93 188.893 81.488 189.253 82.196C189.613 82.904 189.793 83.684 189.793 84.536C189.793 85.388 189.613 86.168 189.253 86.876C188.893 87.584 188.371 88.148 187.687 88.568C187.003 88.976 186.193 89.18 185.257 89.18ZM185.257 87.488C186.037 87.488 186.643 87.224 187.075 86.696C187.519 86.168 187.741 85.448 187.741 84.536C187.741 83.636 187.519 82.922 187.075 82.394C186.643 81.854 186.037 81.584 185.257 81.584C184.477 81.584 183.871 81.854 183.439 82.394C183.007 82.922 182.791 83.636 182.791 84.536C182.791 85.448 183.007 86.168 183.439 86.696C183.871 87.224 184.477 87.488 185.257 87.488ZM199.036 80.072V89H197.182L197.092 88.316C196.828 88.58 196.504 88.79 196.12 88.946C195.748 89.102 195.352 89.18 194.932 89.18C193.696 89.18 192.784 88.82 192.196 88.1C191.608 87.38 191.314 86.348 191.314 85.004V80.072H193.33V84.842C193.33 85.73 193.474 86.39 193.762 86.822C194.062 87.254 194.542 87.47 195.202 87.47C195.982 87.47 196.588 87.188 197.02 86.624V80.072H199.036ZM201.16 80.072H202.978L203.086 81.206C203.41 80.81 203.782 80.492 204.202 80.252C204.622 80.012 205.06 79.892 205.516 79.892C205.636 79.892 205.768 79.904 205.912 79.928L205.75 81.98C205.558 81.92 205.33 81.89 205.066 81.89C204.67 81.89 204.298 81.986 203.95 82.178C203.602 82.358 203.356 82.574 203.212 82.826V89H201.16V80.072ZM215.52 79.91C216.684 79.91 217.554 80.276 218.13 81.008C218.706 81.74 218.994 82.748 218.994 84.032V89H216.996V84.158C216.996 83.27 216.84 82.622 216.528 82.214C216.228 81.806 215.724 81.602 215.016 81.602C214.176 81.602 213.528 81.896 213.072 82.484V89H211.056V80.072H212.838L212.91 80.81C213.678 80.21 214.548 79.91 215.52 79.91ZM225.343 89.18C224.311 89.18 223.429 88.97 222.697 88.55C221.977 88.13 221.431 87.566 221.059 86.858C220.687 86.138 220.501 85.34 220.501 84.464C220.501 83.624 220.669 82.862 221.005 82.178C221.353 81.482 221.857 80.93 222.517 80.522C223.189 80.114 223.975 79.91 224.875 79.91C225.667 79.91 226.351 80.078 226.927 80.414C227.515 80.738 227.959 81.188 228.259 81.764C228.571 82.34 228.727 83 228.727 83.744C228.727 84.128 228.685 84.494 228.601 84.842H222.589C222.697 85.766 223.015 86.438 223.543 86.858C224.083 87.278 224.749 87.488 225.541 87.488C226.513 87.488 227.395 87.266 228.187 86.822L228.331 88.496C227.419 88.952 226.423 89.18 225.343 89.18ZM226.675 83.474C226.675 82.946 226.525 82.502 226.225 82.142C225.925 81.782 225.469 81.602 224.857 81.602C223.693 81.602 222.961 82.226 222.661 83.474H226.675ZM234.589 89.18C233.557 89.18 232.675 88.97 231.943 88.55C231.223 88.13 230.677 87.566 230.305 86.858C229.933 86.138 229.747 85.34 229.747 84.464C229.747 83.624 229.915 82.862 230.251 82.178C230.599 81.482 231.103 80.93 231.763 80.522C232.435 80.114 233.221 79.91 234.121 79.91C234.913 79.91 235.597 80.078 236.173 80.414C236.761 80.738 237.205 81.188 237.505 81.764C237.817 82.34 237.973 83 237.973 83.744C237.973 84.128 237.931 84.494 237.847 84.842H231.835C231.943 85.766 232.261 86.438 232.789 86.858C233.329 87.278 233.995 87.488 234.787 87.488C235.759 87.488 236.641 87.266 237.433 86.822L237.577 88.496C236.665 88.952 235.669 89.18 234.589 89.18ZM235.921 83.474C235.921 82.946 235.771 82.502 235.471 82.142C235.171 81.782 234.715 81.602 234.103 81.602C232.939 81.602 232.207 82.226 231.907 83.474H235.921ZM247.597 75.5V89H245.743L245.653 88.244C244.969 88.868 244.123 89.18 243.115 89.18C242.287 89.18 241.561 88.976 240.937 88.568C240.313 88.148 239.833 87.59 239.497 86.894C239.161 86.186 238.993 85.406 238.993 84.554C238.993 83.714 239.155 82.94 239.479 82.232C239.815 81.524 240.289 80.96 240.901 80.54C241.525 80.12 242.263 79.91 243.115 79.91C244.087 79.91 244.909 80.198 245.581 80.774V75.5H247.597ZM243.421 87.488C244.129 87.488 244.687 87.23 245.095 86.714C245.515 86.198 245.725 85.478 245.725 84.554C245.725 83.642 245.515 82.922 245.095 82.394C244.675 81.866 244.117 81.602 243.421 81.602C242.689 81.602 242.113 81.878 241.693 82.43C241.273 82.97 241.063 83.678 241.063 84.554C241.063 85.418 241.273 86.126 241.693 86.678C242.113 87.218 242.689 87.488 243.421 87.488ZM252.248 89.18C251.156 89.18 250.142 88.946 249.206 88.478L249.404 86.696C250.328 87.296 251.252 87.596 252.176 87.596C252.668 87.596 253.04 87.518 253.292 87.362C253.556 87.194 253.688 86.948 253.688 86.624C253.688 86.264 253.556 85.994 253.292 85.814C253.028 85.634 252.596 85.436 251.996 85.22C251.12 84.92 250.454 84.578 249.998 84.194C249.554 83.81 249.332 83.252 249.332 82.52C249.332 81.752 249.62 81.122 250.196 80.63C250.784 80.138 251.606 79.892 252.662 79.892C253.646 79.892 254.528 80.108 255.308 80.54L255.11 82.286C254.714 81.998 254.324 81.776 253.94 81.62C253.556 81.464 253.142 81.386 252.698 81.386C252.254 81.386 251.912 81.476 251.672 81.656C251.432 81.824 251.312 82.07 251.312 82.394C251.312 82.634 251.378 82.832 251.51 82.988C251.642 83.144 251.828 83.276 252.068 83.384C252.32 83.492 252.71 83.642 253.238 83.834C254.042 84.134 254.654 84.482 255.074 84.878C255.506 85.262 255.722 85.808 255.722 86.516C255.722 87.32 255.434 87.968 254.858 88.46C254.282 88.94 253.412 89.18 252.248 89.18ZM257.053 86.75H259.249V89H257.053V86.75Z" fill="#C4C4C4"/>
<path opacity="0.1" d="M63.68 157.01C50.9233 157.01 39.7433 153.713 30.14 147.12C20.68 140.383 13.2983 130.995 7.995 118.955C2.835 106.915 0.255001 93.0833 0.255001 77.46C0.255001 62.41 2.90667 49.08 8.21 37.47C13.5133 25.7167 20.9667 16.615 30.57 10.165C40.1733 3.71499 51.21 0.48999 63.68 0.48999C76.2933 0.48999 87.4017 3.71499 97.005 10.165C106.608 16.615 113.99 25.645 119.15 37.255C124.453 48.865 127.105 62.2667 127.105 77.46C127.105 93.0833 124.453 106.915 119.15 118.955C113.99 130.995 106.608 140.383 97.005 147.12C87.545 153.713 76.4367 157.01 63.68 157.01ZM63.68 134.65C75.4333 134.65 84.6783 129.848 91.415 120.245C98.1517 110.642 101.52 96.38 101.52 77.46C101.52 59.5433 98.08 45.9267 91.2 36.61C84.32 27.2933 75.1467 22.635 63.68 22.635C52.2133 22.635 42.9683 27.2933 35.945 36.61C29.065 45.9267 25.625 59.5433 25.625 77.46C25.625 96.2367 28.9933 110.498 35.73 120.245C42.61 129.848 51.9267 134.65 63.68 134.65ZM189.697 92.51C197.724 80.3267 203.314 70.8667 206.467 64.13C209.764 57.3933 211.412 51.0867 211.412 45.21C211.412 38.6167 209.549 33.385 205.822 29.515C202.095 25.645 196.935 23.71 190.342 23.71C177.872 23.71 165.689 29.6583 153.792 41.555L150.782 16.185C163.825 5.72166 178.445 0.48999 194.642 0.48999C203.385 0.48999 210.839 2.35333 217.002 6.07999C223.309 9.66332 228.039 14.5367 231.192 20.7C234.345 26.8633 235.922 33.7433 235.922 41.34C235.922 50.0833 234.059 58.8267 230.332 67.57C226.749 76.17 220.442 87.35 211.412 101.11L191.847 130.78H241.297V154H149.707L189.697 92.51Z" fill="#C7CCE1"/>
</svg>
