<svg width="375" height="219" viewBox="0 0 375 219" fill="none" xmlns="http://www.w3.org/2000/svg">
<ellipse cx="23" cy="127.706" rx="12" ry="3.29412" fill="#F2F2F2"/>
<path fill-rule="evenodd" clip-rule="evenodd" d="M22.5385 121.588C22.5385 121.588 31.3077 114.059 31.3077 107.941C31.3077 103.003 27.3816 99 22.5385 99C17.6953 99 13.7692 103.003 13.7692 107.941C13.7692 114.529 22.5385 121.588 22.5385 121.588ZM22.5384 111.235C24.8325 111.235 26.6923 109.339 26.6923 107C26.6923 104.661 24.8325 102.765 22.5384 102.765C20.2443 102.765 18.3846 104.661 18.3846 107C18.3846 109.339 20.2443 111.235 22.5384 111.235Z" fill="#13F1FC"/>
<path d="M47.04 120.252C46.32 120.252 45.564 120.162 44.772 119.982C43.98 119.802 43.35 119.598 42.882 119.37L43.134 117.156C44.694 117.9 46.104 118.272 47.364 118.272C48.072 118.272 48.624 118.14 49.02 117.876C49.416 117.612 49.614 117.216 49.614 116.688C49.614 116.28 49.506 115.95 49.29 115.698C49.086 115.446 48.78 115.23 48.372 115.05C47.964 114.858 47.358 114.63 46.554 114.366C45.774 114.114 45.126 113.844 44.61 113.556C44.094 113.256 43.68 112.878 43.368 112.422C43.068 111.954 42.918 111.372 42.918 110.676C42.918 109.62 43.308 108.768 44.088 108.12C44.88 107.472 46.008 107.148 47.472 107.148C48.192 107.148 48.9 107.226 49.596 107.382C50.292 107.538 50.91 107.736 51.45 107.976L51.234 110.136C50.514 109.788 49.842 109.53 49.218 109.362C48.606 109.194 47.982 109.11 47.346 109.11C46.626 109.11 46.068 109.236 45.672 109.488C45.276 109.728 45.078 110.1 45.078 110.604C45.078 110.964 45.174 111.264 45.366 111.504C45.57 111.732 45.846 111.924 46.194 112.08C46.554 112.236 47.07 112.422 47.742 112.638C49.182 113.082 50.238 113.604 50.91 114.204C51.594 114.792 51.936 115.602 51.936 116.634C51.936 117.654 51.564 118.512 50.82 119.208C50.076 119.904 48.816 120.252 47.04 120.252ZM61.0475 111.072V120H59.1935L59.1035 119.316C58.8395 119.58 58.5155 119.79 58.1315 119.946C57.7595 120.102 57.3635 120.18 56.9435 120.18C55.7075 120.18 54.7955 119.82 54.2075 119.1C53.6195 118.38 53.3255 117.348 53.3255 116.004V111.072H55.3415V115.842C55.3415 116.73 55.4855 117.39 55.7735 117.822C56.0735 118.254 56.5535 118.47 57.2135 118.47C57.9935 118.47 58.5995 118.188 59.0315 117.624V111.072H61.0475ZM67.7254 110.91C68.5654 110.91 69.2854 111.12 69.8854 111.54C70.4974 111.96 70.9594 112.524 71.2714 113.232C71.5954 113.928 71.7574 114.696 71.7574 115.536C71.7574 116.388 71.5894 117.168 71.2534 117.876C70.9294 118.584 70.4614 119.148 69.8494 119.568C69.2494 119.976 68.5414 120.18 67.7254 120.18C66.6694 120.18 65.7934 119.868 65.0974 119.244L65.0074 120H63.1534V106.5H65.1694V111.846C65.9134 111.222 66.7654 110.91 67.7254 110.91ZM67.4554 118.488C68.1394 118.488 68.6794 118.218 69.0754 117.678C69.4834 117.126 69.6874 116.412 69.6874 115.536C69.6874 114.66 69.4834 113.952 69.0754 113.412C68.6794 112.872 68.1394 112.602 67.4554 112.602C66.6994 112.602 66.1114 112.86 65.6914 113.376C65.2714 113.892 65.0614 114.612 65.0614 115.536C65.0614 116.472 65.2714 117.198 65.6914 117.714C66.1114 118.23 66.6994 118.488 67.4554 118.488ZM83.5191 110.91C84.6951 110.91 85.5711 111.258 86.1471 111.954C86.7231 112.638 87.0111 113.628 87.0111 114.924V120H84.9951V115.032C84.9951 114.192 84.8511 113.58 84.5631 113.196C84.2871 112.8 83.8251 112.602 83.1771 112.602C82.4691 112.602 81.9591 112.818 81.6471 113.25C81.3351 113.682 81.1791 114.252 81.1791 114.96V120H79.1811V115.158C79.1811 114.246 79.0251 113.592 78.7131 113.196C78.4131 112.8 77.9511 112.602 77.3271 112.602C76.4751 112.602 75.8211 112.902 75.3651 113.502V120H73.3491V111.072H75.0231L75.1491 111.864C75.9411 111.228 76.8351 110.91 77.8311 110.91C79.0551 110.91 79.9491 111.384 80.5131 112.332C80.8251 111.876 81.2331 111.528 81.7371 111.288C82.2531 111.036 82.8471 110.91 83.5191 110.91ZM89.0464 107.4H91.0624V109.47H89.0464V107.4ZM89.0464 111.072H91.0624V120H89.0464V111.072ZM96.1648 120.18C95.3848 120.18 94.7908 119.958 94.3828 119.514C93.9868 119.07 93.7888 118.536 93.7888 117.912V112.692H92.4388L92.6188 111.072H93.7888V109.02L95.8048 108.804V111.072H97.9108V112.692H95.8048V116.976C95.8048 117.504 95.8348 117.87 95.8948 118.074C95.9548 118.266 96.0808 118.392 96.2728 118.452C96.4768 118.512 96.8368 118.542 97.3528 118.542H97.8928L97.7128 120.18H96.1648ZM106.343 120.18C105.563 120.18 104.969 119.958 104.561 119.514C104.165 119.07 103.967 118.536 103.967 117.912V112.692H102.617L102.797 111.072H103.967V109.02L105.983 108.804V111.072H108.089V112.692H105.983V116.976C105.983 117.504 106.013 117.87 106.073 118.074C106.133 118.266 106.259 118.392 106.451 118.452C106.655 118.512 107.015 118.542 107.531 118.542H108.071L107.891 120.18H106.343ZM113.935 110.91C115.063 110.91 115.909 111.282 116.473 112.026C117.049 112.758 117.337 113.76 117.337 115.032V120H115.321V115.212C115.321 114.312 115.171 113.652 114.871 113.232C114.571 112.812 114.091 112.602 113.431 112.602C112.639 112.602 111.997 112.908 111.505 113.52V120H109.489V106.5H111.505V111.756C111.865 111.48 112.237 111.27 112.621 111.126C113.005 110.982 113.443 110.91 113.935 110.91ZM123.671 120.18C122.639 120.18 121.757 119.97 121.025 119.55C120.305 119.13 119.759 118.566 119.387 117.858C119.015 117.138 118.829 116.34 118.829 115.464C118.829 114.624 118.997 113.862 119.333 113.178C119.681 112.482 120.185 111.93 120.845 111.522C121.517 111.114 122.303 110.91 123.203 110.91C123.995 110.91 124.679 111.078 125.255 111.414C125.843 111.738 126.287 112.188 126.587 112.764C126.899 113.34 127.055 114 127.055 114.744C127.055 115.128 127.013 115.494 126.929 115.842H120.917C121.025 116.766 121.343 117.438 121.871 117.858C122.411 118.278 123.077 118.488 123.869 118.488C124.841 118.488 125.723 118.266 126.515 117.822L126.659 119.496C125.747 119.952 124.751 120.18 123.671 120.18ZM125.003 114.474C125.003 113.946 124.853 113.502 124.553 113.142C124.253 112.782 123.797 112.602 123.185 112.602C122.021 112.602 121.289 113.226 120.989 114.474H125.003ZM136.798 120.18C135.814 120.18 134.968 119.976 134.26 119.568C133.564 119.16 133.036 118.608 132.676 117.912C132.316 117.216 132.136 116.436 132.136 115.572C132.136 114.684 132.31 113.886 132.658 113.178C133.018 112.47 133.552 111.912 134.26 111.504C134.968 111.096 135.844 110.892 136.888 110.892C137.788 110.892 138.592 111.078 139.3 111.45L139.084 113.106C138.388 112.77 137.698 112.602 137.014 112.602C136.114 112.602 135.418 112.866 134.926 113.394C134.434 113.922 134.188 114.636 134.188 115.536C134.188 116.424 134.434 117.138 134.926 117.678C135.418 118.218 136.102 118.488 136.978 118.488C137.722 118.488 138.43 118.296 139.102 117.912L139.318 119.586C139.006 119.766 138.628 119.91 138.184 120.018C137.74 120.126 137.278 120.18 136.798 120.18ZM144.757 120.18C143.833 120.18 143.029 119.976 142.345 119.568C141.661 119.148 141.133 118.584 140.761 117.876C140.401 117.168 140.221 116.388 140.221 115.536C140.221 114.684 140.401 113.904 140.761 113.196C141.133 112.488 141.661 111.93 142.345 111.522C143.029 111.102 143.833 110.892 144.757 110.892C145.693 110.892 146.503 111.102 147.187 111.522C147.871 111.93 148.393 112.488 148.753 113.196C149.113 113.904 149.293 114.684 149.293 115.536C149.293 116.388 149.113 117.168 148.753 117.876C148.393 118.584 147.871 119.148 147.187 119.568C146.503 119.976 145.693 120.18 144.757 120.18ZM144.757 118.488C145.537 118.488 146.143 118.224 146.575 117.696C147.019 117.168 147.241 116.448 147.241 115.536C147.241 114.636 147.019 113.922 146.575 113.394C146.143 112.854 145.537 112.584 144.757 112.584C143.977 112.584 143.371 112.854 142.939 113.394C142.507 113.922 142.291 114.636 142.291 115.536C142.291 116.448 142.507 117.168 142.939 117.696C143.371 118.224 143.977 118.488 144.757 118.488ZM161.074 110.91C162.25 110.91 163.126 111.258 163.702 111.954C164.278 112.638 164.566 113.628 164.566 114.924V120H162.55V115.032C162.55 114.192 162.406 113.58 162.118 113.196C161.842 112.8 161.38 112.602 160.732 112.602C160.024 112.602 159.514 112.818 159.202 113.25C158.89 113.682 158.734 114.252 158.734 114.96V120H156.736V115.158C156.736 114.246 156.58 113.592 156.268 113.196C155.968 112.8 155.506 112.602 154.882 112.602C154.03 112.602 153.376 112.902 152.92 113.502V120H150.904V111.072H152.578L152.704 111.864C153.496 111.228 154.39 110.91 155.386 110.91C156.61 110.91 157.504 111.384 158.068 112.332C158.38 111.876 158.788 111.528 159.292 111.288C159.808 111.036 160.402 110.91 161.074 110.91ZM171.227 110.91C172.055 110.91 172.769 111.114 173.369 111.522C173.969 111.93 174.425 112.488 174.737 113.196C175.049 113.892 175.205 114.672 175.205 115.536C175.205 116.4 175.049 117.186 174.737 117.894C174.437 118.602 173.987 119.16 173.387 119.568C172.787 119.976 172.067 120.18 171.227 120.18C170.651 120.18 170.153 120.108 169.733 119.964C169.325 119.82 168.953 119.592 168.617 119.28V124.356H166.601V111.072H168.203L168.419 112.026C168.803 111.666 169.217 111.39 169.661 111.198C170.117 111.006 170.639 110.91 171.227 110.91ZM170.885 118.488C171.593 118.488 172.145 118.224 172.541 117.696C172.937 117.168 173.135 116.448 173.135 115.536C173.135 114.636 172.937 113.922 172.541 113.394C172.145 112.866 171.593 112.602 170.885 112.602C170.129 112.602 169.541 112.86 169.121 113.376C168.713 113.892 168.509 114.612 168.509 115.536C168.509 116.472 168.713 117.198 169.121 117.714C169.541 118.23 170.129 118.488 170.885 118.488ZM179.1 120.18C178.332 120.18 177.756 119.97 177.372 119.55C177 119.118 176.814 118.572 176.814 117.912V106.5H178.812V116.976C178.812 117.48 178.842 117.84 178.902 118.056C178.962 118.26 179.07 118.392 179.226 118.452C179.382 118.512 179.646 118.542 180.018 118.542L179.82 120.18H179.1ZM185.581 120.18C184.549 120.18 183.667 119.97 182.935 119.55C182.215 119.13 181.669 118.566 181.297 117.858C180.925 117.138 180.739 116.34 180.739 115.464C180.739 114.624 180.907 113.862 181.243 113.178C181.591 112.482 182.095 111.93 182.755 111.522C183.427 111.114 184.213 110.91 185.113 110.91C185.905 110.91 186.589 111.078 187.165 111.414C187.753 111.738 188.197 112.188 188.497 112.764C188.809 113.34 188.965 114 188.965 114.744C188.965 115.128 188.923 115.494 188.839 115.842H182.827C182.935 116.766 183.253 117.438 183.781 117.858C184.321 118.278 184.987 118.488 185.779 118.488C186.751 118.488 187.633 118.266 188.425 117.822L188.569 119.496C187.657 119.952 186.661 120.18 185.581 120.18ZM186.913 114.474C186.913 113.946 186.763 113.502 186.463 113.142C186.163 112.782 185.707 112.602 185.095 112.602C183.931 112.602 183.199 113.226 182.899 114.474H186.913ZM193.495 120.18C192.715 120.18 192.121 119.958 191.713 119.514C191.317 119.07 191.119 118.536 191.119 117.912V112.692H189.769L189.949 111.072H191.119V109.02L193.135 108.804V111.072H195.241V112.692H193.135V116.976C193.135 117.504 193.165 117.87 193.225 118.074C193.285 118.266 193.411 118.392 193.603 118.452C193.807 118.512 194.167 118.542 194.683 118.542H195.223L195.043 120.18H193.495ZM200.944 120.18C199.912 120.18 199.03 119.97 198.298 119.55C197.578 119.13 197.032 118.566 196.66 117.858C196.288 117.138 196.102 116.34 196.102 115.464C196.102 114.624 196.27 113.862 196.606 113.178C196.954 112.482 197.458 111.93 198.118 111.522C198.79 111.114 199.576 110.91 200.476 110.91C201.268 110.91 201.952 111.078 202.528 111.414C203.116 111.738 203.56 112.188 203.86 112.764C204.172 113.34 204.328 114 204.328 114.744C204.328 115.128 204.286 115.494 204.202 115.842H198.19C198.298 116.766 198.616 117.438 199.144 117.858C199.684 118.278 200.35 118.488 201.142 118.488C202.114 118.488 202.996 118.266 203.788 117.822L203.932 119.496C203.02 119.952 202.024 120.18 200.944 120.18ZM202.276 114.474C202.276 113.946 202.126 113.502 201.826 113.142C201.526 112.782 201.07 112.602 200.458 112.602C199.294 112.602 198.562 113.226 198.262 114.474H202.276ZM211.911 120.18C211.143 120.18 210.507 119.94 210.003 119.46C209.511 118.968 209.265 118.326 209.265 117.534C209.265 116.754 209.541 116.13 210.093 115.662C210.645 115.194 211.305 114.864 212.073 114.672C212.853 114.468 213.627 114.354 214.395 114.33C214.383 113.706 214.245 113.274 213.981 113.034C213.717 112.782 213.279 112.656 212.667 112.656C212.283 112.656 211.899 112.716 211.515 112.836C211.143 112.944 210.723 113.124 210.255 113.376L210.039 111.738C211.047 111.186 212.109 110.91 213.225 110.91C214.305 110.91 215.109 111.21 215.637 111.81C216.165 112.398 216.429 113.376 216.429 114.744V116.958C216.429 117.426 216.447 117.768 216.483 117.984C216.531 118.188 216.609 118.332 216.717 118.416C216.837 118.5 217.029 118.542 217.293 118.542H217.545L217.311 120.18H216.753C216.177 120.18 215.727 120.084 215.403 119.892C215.091 119.7 214.839 119.418 214.647 119.046C214.335 119.394 213.939 119.67 213.459 119.874C212.979 120.078 212.463 120.18 211.911 120.18ZM212.631 118.614C212.931 118.614 213.243 118.542 213.567 118.398C213.903 118.242 214.185 118.032 214.413 117.768V115.698C213.489 115.734 212.745 115.896 212.181 116.184C211.629 116.472 211.353 116.892 211.353 117.444C211.353 118.224 211.779 118.614 212.631 118.614ZM223.237 110.91C224.401 110.91 225.271 111.276 225.847 112.008C226.423 112.74 226.711 113.748 226.711 115.032V120H224.713V115.158C224.713 114.27 224.557 113.622 224.245 113.214C223.945 112.806 223.441 112.602 222.733 112.602C221.893 112.602 221.245 112.896 220.789 113.484V120H218.773V111.072H220.555L220.627 111.81C221.395 111.21 222.265 110.91 223.237 110.91ZM236.821 106.5V120H234.967L234.877 119.244C234.193 119.868 233.347 120.18 232.339 120.18C231.511 120.18 230.785 119.976 230.161 119.568C229.537 119.148 229.057 118.59 228.721 117.894C228.385 117.186 228.217 116.406 228.217 115.554C228.217 114.714 228.379 113.94 228.703 113.232C229.039 112.524 229.513 111.96 230.125 111.54C230.749 111.12 231.487 110.91 232.339 110.91C233.311 110.91 234.133 111.198 234.805 111.774V106.5H236.821ZM232.645 118.488C233.353 118.488 233.911 118.23 234.319 117.714C234.739 117.198 234.949 116.478 234.949 115.554C234.949 114.642 234.739 113.922 234.319 113.394C233.899 112.866 233.341 112.602 232.645 112.602C231.913 112.602 231.337 112.878 230.917 113.43C230.497 113.97 230.287 114.678 230.287 115.554C230.287 116.418 230.497 117.126 230.917 117.678C231.337 118.218 231.913 118.488 232.645 118.488ZM251.042 106.5V120H249.188L249.098 119.244C248.414 119.868 247.568 120.18 246.56 120.18C245.732 120.18 245.006 119.976 244.382 119.568C243.758 119.148 243.278 118.59 242.942 117.894C242.606 117.186 242.438 116.406 242.438 115.554C242.438 114.714 242.6 113.94 242.924 113.232C243.26 112.524 243.734 111.96 244.346 111.54C244.97 111.12 245.708 110.91 246.56 110.91C247.532 110.91 248.354 111.198 249.026 111.774V106.5H251.042ZM246.866 118.488C247.574 118.488 248.132 118.23 248.54 117.714C248.96 117.198 249.17 116.478 249.17 115.554C249.17 114.642 248.96 113.922 248.54 113.394C248.12 112.866 247.562 112.602 246.866 112.602C246.134 112.602 245.558 112.878 245.138 113.43C244.718 113.97 244.508 114.678 244.508 115.554C244.508 116.418 244.718 117.126 245.138 117.678C245.558 118.218 246.134 118.488 246.866 118.488ZM257.458 120.18C256.426 120.18 255.544 119.97 254.812 119.55C254.092 119.13 253.546 118.566 253.174 117.858C252.802 117.138 252.616 116.34 252.616 115.464C252.616 114.624 252.784 113.862 253.12 113.178C253.468 112.482 253.972 111.93 254.632 111.522C255.304 111.114 256.09 110.91 256.99 110.91C257.782 110.91 258.466 111.078 259.042 111.414C259.63 111.738 260.074 112.188 260.374 112.764C260.686 113.34 260.842 114 260.842 114.744C260.842 115.128 260.8 115.494 260.716 115.842H254.704C254.812 116.766 255.13 117.438 255.658 117.858C256.198 118.278 256.864 118.488 257.656 118.488C258.628 118.488 259.51 118.266 260.302 117.822L260.446 119.496C259.534 119.952 258.538 120.18 257.458 120.18ZM258.79 114.474C258.79 113.946 258.64 113.502 258.34 113.142C258.04 112.782 257.584 112.602 256.972 112.602C255.808 112.602 255.076 113.226 254.776 114.474H258.79ZM265.372 120.18C264.592 120.18 263.998 119.958 263.59 119.514C263.194 119.07 262.996 118.536 262.996 117.912V112.692H261.646L261.826 111.072H262.996V109.02L265.012 108.804V111.072H267.118V112.692H265.012V116.976C265.012 117.504 265.042 117.87 265.102 118.074C265.162 118.266 265.288 118.392 265.48 118.452C265.684 118.512 266.044 118.542 266.56 118.542H267.1L266.92 120.18H265.372ZM270.517 120.18C269.749 120.18 269.113 119.94 268.609 119.46C268.117 118.968 267.871 118.326 267.871 117.534C267.871 116.754 268.147 116.13 268.699 115.662C269.251 115.194 269.911 114.864 270.679 114.672C271.459 114.468 272.233 114.354 273.001 114.33C272.989 113.706 272.851 113.274 272.587 113.034C272.323 112.782 271.885 112.656 271.273 112.656C270.889 112.656 270.505 112.716 270.121 112.836C269.749 112.944 269.329 113.124 268.861 113.376L268.645 111.738C269.653 111.186 270.715 110.91 271.831 110.91C272.911 110.91 273.715 111.21 274.243 111.81C274.771 112.398 275.035 113.376 275.035 114.744V116.958C275.035 117.426 275.053 117.768 275.089 117.984C275.137 118.188 275.215 118.332 275.323 118.416C275.443 118.5 275.635 118.542 275.899 118.542H276.151L275.917 120.18H275.359C274.783 120.18 274.333 120.084 274.009 119.892C273.697 119.7 273.445 119.418 273.253 119.046C272.941 119.394 272.545 119.67 272.065 119.874C271.585 120.078 271.069 120.18 270.517 120.18ZM271.237 118.614C271.537 118.614 271.849 118.542 272.173 118.398C272.509 118.242 272.791 118.032 273.019 117.768V115.698C272.095 115.734 271.351 115.896 270.787 116.184C270.235 116.472 269.959 116.892 269.959 117.444C269.959 118.224 270.385 118.614 271.237 118.614ZM277.378 107.4H279.394V109.47H277.378V107.4ZM277.378 111.072H279.394V120H277.378V111.072ZM283.813 120.18C283.045 120.18 282.469 119.97 282.085 119.55C281.713 119.118 281.527 118.572 281.527 117.912V106.5H283.525V116.976C283.525 117.48 283.555 117.84 283.615 118.056C283.675 118.26 283.783 118.392 283.939 118.452C284.095 118.512 284.359 118.542 284.731 118.542L284.533 120.18H283.813ZM290.294 120.18C289.262 120.18 288.38 119.97 287.648 119.55C286.928 119.13 286.382 118.566 286.01 117.858C285.638 117.138 285.452 116.34 285.452 115.464C285.452 114.624 285.62 113.862 285.956 113.178C286.304 112.482 286.808 111.93 287.468 111.522C288.14 111.114 288.926 110.91 289.826 110.91C290.618 110.91 291.302 111.078 291.878 111.414C292.466 111.738 292.91 112.188 293.21 112.764C293.522 113.34 293.678 114 293.678 114.744C293.678 115.128 293.636 115.494 293.552 115.842H287.54C287.648 116.766 287.966 117.438 288.494 117.858C289.034 118.278 289.7 118.488 290.492 118.488C291.464 118.488 292.346 118.266 293.138 117.822L293.282 119.496C292.37 119.952 291.374 120.18 290.294 120.18ZM291.626 114.474C291.626 113.946 291.476 113.502 291.176 113.142C290.876 112.782 290.42 112.602 289.808 112.602C288.644 112.602 287.912 113.226 287.612 114.474H291.626ZM303.302 106.5V120H301.448L301.358 119.244C300.674 119.868 299.828 120.18 298.82 120.18C297.992 120.18 297.266 119.976 296.642 119.568C296.018 119.148 295.538 118.59 295.202 117.894C294.866 117.186 294.698 116.406 294.698 115.554C294.698 114.714 294.86 113.94 295.184 113.232C295.52 112.524 295.994 111.96 296.606 111.54C297.23 111.12 297.968 110.91 298.82 110.91C299.792 110.91 300.614 111.198 301.286 111.774V106.5H303.302ZM299.126 118.488C299.834 118.488 300.392 118.23 300.8 117.714C301.22 117.198 301.43 116.478 301.43 115.554C301.43 114.642 301.22 113.922 300.8 113.394C300.38 112.866 299.822 112.602 299.126 112.602C298.394 112.602 297.818 112.878 297.398 113.43C296.978 113.97 296.768 114.678 296.768 115.554C296.768 116.418 296.978 117.126 297.398 117.678C297.818 118.218 298.394 118.488 299.126 118.488ZM310.034 112.692H308.648L308.864 111.072H310.034V109.092C310.034 108.288 310.262 107.658 310.718 107.202C311.174 106.734 311.822 106.5 312.662 106.5C313.202 106.5 313.682 106.56 314.102 106.68L313.886 108.336C313.634 108.252 313.376 108.21 313.112 108.21C312.392 108.21 312.032 108.6 312.032 109.38V111.072H314.156V112.692H312.032V120H310.034V112.692ZM319.396 120.18C318.472 120.18 317.668 119.976 316.984 119.568C316.3 119.148 315.772 118.584 315.4 117.876C315.04 117.168 314.86 116.388 314.86 115.536C314.86 114.684 315.04 113.904 315.4 113.196C315.772 112.488 316.3 111.93 316.984 111.522C317.668 111.102 318.472 110.892 319.396 110.892C320.332 110.892 321.142 111.102 321.826 111.522C322.51 111.93 323.032 112.488 323.392 113.196C323.752 113.904 323.932 114.684 323.932 115.536C323.932 116.388 323.752 117.168 323.392 117.876C323.032 118.584 322.51 119.148 321.826 119.568C321.142 119.976 320.332 120.18 319.396 120.18ZM319.396 118.488C320.176 118.488 320.782 118.224 321.214 117.696C321.658 117.168 321.88 116.448 321.88 115.536C321.88 114.636 321.658 113.922 321.214 113.394C320.782 112.854 320.176 112.584 319.396 112.584C318.616 112.584 318.01 112.854 317.578 113.394C317.146 113.922 316.93 114.636 316.93 115.536C316.93 116.448 317.146 117.168 317.578 117.696C318.01 118.224 318.616 118.488 319.396 118.488ZM325.542 111.072H327.36L327.468 112.206C327.792 111.81 328.164 111.492 328.584 111.252C329.004 111.012 329.442 110.892 329.898 110.892C330.018 110.892 330.15 110.904 330.294 110.928L330.132 112.98C329.94 112.92 329.712 112.89 329.448 112.89C329.052 112.89 328.68 112.986 328.332 113.178C327.984 113.358 327.738 113.574 327.594 113.826V120H325.542V111.072ZM341.566 110.91C342.742 110.91 343.618 111.258 344.194 111.954C344.77 112.638 345.058 113.628 345.058 114.924V120H343.042V115.032C343.042 114.192 342.898 113.58 342.61 113.196C342.334 112.8 341.872 112.602 341.224 112.602C340.516 112.602 340.006 112.818 339.694 113.25C339.382 113.682 339.226 114.252 339.226 114.96V120H337.228V115.158C337.228 114.246 337.072 113.592 336.76 113.196C336.46 112.8 335.998 112.602 335.374 112.602C334.522 112.602 333.868 112.902 333.412 113.502V120H331.396V111.072H333.07L333.196 111.864C333.988 111.228 334.882 110.91 335.878 110.91C337.102 110.91 337.996 111.384 338.56 112.332C338.872 111.876 339.28 111.528 339.784 111.288C340.3 111.036 340.894 110.91 341.566 110.91ZM346.877 117.75H349.073V120H346.877V117.75Z" fill="#C4C4C4"/>
<path opacity="0.1" d="M75.68 210.01C62.9233 210.01 51.7433 206.713 42.14 200.12C32.68 193.383 25.2983 183.995 19.995 171.955C14.835 159.915 12.255 146.083 12.255 130.46C12.255 115.41 14.9067 102.08 20.21 90.47C25.5133 78.7167 32.9667 69.615 42.57 63.165C52.1733 56.715 63.21 53.49 75.68 53.49C88.2933 53.49 99.4017 56.715 109.005 63.165C118.608 69.615 125.99 78.645 131.15 90.255C136.453 101.865 139.105 115.267 139.105 130.46C139.105 146.083 136.453 159.915 131.15 171.955C125.99 183.995 118.608 193.383 109.005 200.12C99.545 206.713 88.4367 210.01 75.68 210.01ZM75.68 187.65C87.4333 187.65 96.6783 182.848 103.415 173.245C110.152 163.642 113.52 149.38 113.52 130.46C113.52 112.543 110.08 98.9267 103.2 89.61C96.32 80.2933 87.1467 75.635 75.68 75.635C64.2133 75.635 54.9683 80.2933 47.945 89.61C41.065 98.9267 37.625 112.543 37.625 130.46C37.625 149.237 40.9933 163.498 47.73 173.245C54.61 182.848 63.9267 187.65 75.68 187.65ZM182.992 91.975C176.255 96.8483 169.519 100.073 162.782 101.65L159.987 79.935C165.147 78.645 170.665 75.7067 176.542 71.12C182.562 66.39 186.79 61.5167 189.227 56.5H207.717V207H182.992V91.975Z" fill="#C7CCE1"/>
</svg>
